<svg width="131" height="33" viewBox="0 0 131 33" fill="none" xmlns="http://www.w3.org/2000/svg">
<path d="M17.684 7.576V25H15.2V22.516C14.432 23.332 13.484 24.016 12.356 24.568C11.228 25.096 10.004 25.36 8.684 25.36C7.268 25.36 5.96 25.024 4.76 24.352C3.56 23.68 2.6 22.708 1.88 21.436C1.16 20.164 0.8 18.688 0.8 17.008C0.8 15.232 1.208 13.636 2.024 12.22C2.84 10.78 3.944 9.664 5.336 8.872C6.752 8.056 8.312 7.648 10.016 7.648C11.648 7.648 13.364 8.068 15.164 8.908V8.224L17.684 7.576ZM9.26 23.164C10.364 23.164 11.444 22.912 12.5 22.408C13.556 21.88 14.444 21.16 15.164 20.248V11.464C13.412 10.336 11.708 9.772 10.052 9.772C8.78 9.772 7.64 10.072 6.632 10.672C5.648 11.248 4.868 12.076 4.292 13.156C3.716 14.212 3.428 15.424 3.428 16.792C3.428 18.688 3.968 20.224 5.048 21.4C6.128 22.576 7.532 23.164 9.26 23.164ZM40.0158 7.648V25H37.5678V21.616C36.6318 22.816 35.5278 23.728 34.2558 24.352C33.0078 24.976 31.7118 25.288 30.3678 25.288C28.4238 25.288 26.8638 24.7 25.6878 23.524C24.5358 22.324 23.9598 20.488 23.9598 18.016V8.224L26.4798 7.648V17.512C26.4798 21.184 27.9798 23.02 30.9798 23.02C33.4518 23.02 35.6238 21.724 37.4958 19.132V8.224L40.0158 7.648ZM62.16 0.303998V25H59.712V22.588C58.92 23.404 57.936 24.076 56.76 24.604C55.608 25.108 54.372 25.36 53.052 25.36C51.588 25.36 50.256 25.036 49.056 24.388C47.856 23.716 46.896 22.756 46.176 21.508C45.48 20.236 45.132 18.748 45.132 17.044C45.132 15.244 45.528 13.624 46.32 12.184C47.136 10.744 48.24 9.628 49.632 8.836C51.048 8.02 52.62 7.612 54.348 7.612C56.076 7.612 57.84 8.008 59.64 8.8V0.807998L62.16 0.303998ZM53.664 23.164C54.84 23.164 55.944 22.9 56.976 22.372C58.032 21.844 58.92 21.136 59.64 20.248V11.32C57.936 10.264 56.172 9.736 54.348 9.736C53.1 9.736 51.972 10.036 50.964 10.636C49.98 11.212 49.2 12.04 48.624 13.12C48.048 14.176 47.76 15.4 47.76 16.792C47.76 18.76 48.312 20.32 49.416 21.472C50.544 22.6 51.96 23.164 53.664 23.164ZM84.1645 7.576V25H81.6805V22.516C80.9125 23.332 79.9645 24.016 78.8365 24.568C77.7085 25.096 76.4845 25.36 75.1645 25.36C73.7485 25.36 72.4405 25.024 71.2405 24.352C70.0405 23.68 69.0805 22.708 68.3605 21.436C67.6405 20.164 67.2805 18.688 67.2805 17.008C67.2805 15.232 67.6885 13.636 68.5045 12.22C69.3205 10.78 70.4245 9.664 71.8165 8.872C73.2325 8.056 74.7925 7.648 76.4965 7.648C78.1285 7.648 79.8445 8.068 81.6445 8.908V8.224L84.1645 7.576ZM75.7405 23.164C76.8445 23.164 77.9245 22.912 78.9805 22.408C80.0365 21.88 80.9245 21.16 81.6445 20.248V11.464C79.8925 10.336 78.1885 9.772 76.5325 9.772C75.2605 9.772 74.1205 10.072 73.1125 10.672C72.1285 11.248 71.3485 12.076 70.7725 13.156C70.1965 14.212 69.9085 15.424 69.9085 16.792C69.9085 18.688 70.4485 20.224 71.5285 21.4C72.6085 22.576 74.0125 23.164 75.7405 23.164ZM99.7643 7.612C101.228 7.612 102.572 7.96 103.796 8.656C105.044 9.352 106.04 10.36 106.784 11.68C107.528 12.976 107.9 14.488 107.9 16.216C107.9 18.016 107.492 19.612 106.676 21.004C105.86 22.396 104.732 23.476 103.292 24.244C101.876 25.012 100.28 25.396 98.5043 25.396C96.8003 25.396 95.0723 25.036 93.3203 24.316V32.2H90.8003V8.188L93.2483 7.576V10.276C94.0403 9.484 95.0123 8.848 96.1643 8.368C97.3163 7.864 98.5163 7.612 99.7643 7.612ZM98.6123 23.272C100.604 23.272 102.212 22.648 103.436 21.4C104.66 20.152 105.272 18.508 105.272 16.468C105.272 15.148 105.008 13.984 104.48 12.976C103.952 11.968 103.22 11.188 102.284 10.636C101.372 10.084 100.328 9.808 99.1523 9.808C98.0243 9.808 96.9443 10.06 95.9123 10.564C94.9043 11.068 94.0403 11.74 93.3203 12.58V21.724C95.0483 22.756 96.8123 23.272 98.6123 23.272ZM121.983 7.612C123.447 7.612 124.791 7.96 126.015 8.656C127.263 9.352 128.259 10.36 129.003 11.68C129.747 12.976 130.119 14.488 130.119 16.216C130.119 18.016 129.711 19.612 128.895 21.004C128.079 22.396 126.951 23.476 125.511 24.244C124.095 25.012 122.499 25.396 120.723 25.396C119.019 25.396 117.291 25.036 115.539 24.316V32.2H113.019V8.188L115.467 7.576V10.276C116.259 9.484 117.231 8.848 118.383 8.368C119.535 7.864 120.735 7.612 121.983 7.612ZM120.831 23.272C122.823 23.272 124.431 22.648 125.655 21.4C126.879 20.152 127.491 18.508 127.491 16.468C127.491 15.148 127.227 13.984 126.699 12.976C126.171 11.968 125.439 11.188 124.503 10.636C123.591 10.084 122.547 9.808 121.371 9.808C120.243 9.808 119.163 10.06 118.131 10.564C117.123 11.068 116.259 11.74 115.539 12.58V21.724C117.267 22.756 119.031 23.272 120.831 23.272Z" fill="white"/>
</svg>
