<svg width="40" height="40" viewBox="0 0 40 40" fill="none" xmlns="http://www.w3.org/2000/svg">
<rect width="40" height="40" rx="20" fill="#00678F"/>
<path d="M24.1667 25.2083V27.9167H15.8333V25.2083C15.8333 24.0583 17.7 23.125 20 23.125C22.3 23.125 24.1667 24.0583 24.1667 25.2083ZM20 14.5833C21.4366 14.5833 22.8143 15.154 23.8302 16.1698C24.846 17.1857 25.4167 18.5634 25.4167 20C25.4167 21.0417 25.125 22.0167 24.6167 22.8417L23.3333 21.7C23.6 21.1917 23.75 20.6083 23.75 20C23.75 17.9167 22.0833 16.25 20 16.25C17.9167 16.25 16.25 17.9167 16.25 20C16.25 20.6083 16.4 21.1917 16.6667 21.7L15.3833 22.8417C14.875 22.0167 14.5833 21.0417 14.5833 20C14.5833 18.5634 15.154 17.1857 16.1698 16.1698C17.1857 15.154 18.5634 14.5833 20 14.5833ZM20 11.25C22.3206 11.25 24.5462 12.1719 26.1872 13.8128C27.8281 15.4538 28.75 17.6794 28.75 20C28.75 21.9 28.1417 23.6583 27.1167 25.0917L25.8667 23.9667C26.6333 22.8333 27.0833 21.4667 27.0833 20C27.0833 18.1214 26.3371 16.3197 25.0087 14.9913C23.6803 13.6629 21.8786 12.9167 20 12.9167C18.1214 12.9167 16.3197 13.6629 14.9913 14.9913C13.6629 16.3197 12.9167 18.1214 12.9167 20C12.9167 21.4667 13.3667 22.8333 14.1333 23.9667L12.8833 25.0917C11.8196 23.6071 11.2483 21.8263 11.25 20C11.25 17.6794 12.1719 15.4538 13.8128 13.8128C15.4538 12.1719 17.6794 11.25 20 11.25ZM20 17.9167C20.5525 17.9167 21.0824 18.1362 21.4731 18.5269C21.8638 18.9176 22.0833 19.4475 22.0833 20C22.0833 20.5525 21.8638 21.0824 21.4731 21.4731C21.0824 21.8638 20.5525 22.0833 20 22.0833C19.4475 22.0833 18.9176 21.8638 18.5269 21.4731C18.1362 21.0824 17.9167 20.5525 17.9167 20C17.9167 19.4475 18.1362 18.9176 18.5269 18.5269C18.9176 18.1362 19.4475 17.9167 20 17.9167Z" fill="white"/>
</svg>
