<svg width="40" height="40" viewBox="0 0 40 40" fill="none" xmlns="http://www.w3.org/2000/svg">
<rect width="40" height="40" rx="20" fill="#00678F"/>
<path d="M24.1663 27.5V25.8333C24.1663 24.9493 23.8152 24.1014 23.19 23.4763C22.5649 22.8512 21.7171 22.5 20.833 22.5H14.1663C13.2823 22.5 12.4344 22.8512 11.8093 23.4763C11.1842 24.1014 10.833 24.9493 10.833 25.8333V27.5" stroke="white" stroke-width="1.58824" stroke-linecap="round" stroke-linejoin="round"/>
<path d="M17.4998 19.1667C19.3408 19.1667 20.8332 17.6743 20.8332 15.8333C20.8332 13.9924 19.3408 12.5 17.4998 12.5C15.6589 12.5 14.1665 13.9924 14.1665 15.8333C14.1665 17.6743 15.6589 19.1667 17.4998 19.1667Z" stroke="white" stroke-width="1.58824" stroke-linecap="round" stroke-linejoin="round"/>
<path d="M29.1665 27.5001V25.8334C29.166 25.0948 28.9201 24.3774 28.4676 23.7937C28.0152 23.2099 27.3816 22.793 26.6665 22.6084" stroke="white" stroke-width="1.58824" stroke-linecap="round" stroke-linejoin="round"/>
<path d="M23.333 12.6084C24.05 12.792 24.6855 13.209 25.1394 13.7937C25.5932 14.3783 25.8395 15.0974 25.8395 15.8376C25.8395 16.5777 25.5932 17.2968 25.1394 17.8815C24.6855 18.4661 24.05 18.8831 23.333 19.0667" stroke="white" stroke-width="1.58824" stroke-linecap="round" stroke-linejoin="round"/>
</svg>
