<svg width="40" height="40" viewBox="0 0 40 40" fill="none" xmlns="http://www.w3.org/2000/svg">
<rect width="40" height="40" rx="20" fill="#00678F"/>
<path d="M17.5 25V14.1667L27.5 12.5V23.3333" stroke="white" stroke-width="2" stroke-linecap="round" stroke-linejoin="round"/>
<path d="M15 27.5C16.3807 27.5 17.5 26.3807 17.5 25C17.5 23.6193 16.3807 22.5 15 22.5C13.6193 22.5 12.5 23.6193 12.5 25C12.5 26.3807 13.6193 27.5 15 27.5Z" stroke="white" stroke-width="2" stroke-linecap="round" stroke-linejoin="round"/>
<path d="M25 25.8335C26.3807 25.8335 27.5 24.7142 27.5 23.3335C27.5 21.9528 26.3807 20.8335 25 20.8335C23.6193 20.8335 22.5 21.9528 22.5 23.3335C22.5 24.7142 23.6193 25.8335 25 25.8335Z" stroke="white" stroke-width="2" stroke-linecap="round" stroke-linejoin="round"/>
</svg>
