<svg width="21" height="21" viewBox="0 0 21 21" fill="none" xmlns="http://www.w3.org/2000/svg">
<rect width="21" height="21" rx="10.5" fill="#F2C94C"/>
<path d="M10.4997 11.655C11.1376 11.655 11.6547 11.1379 11.6547 10.5C11.6547 9.86208 11.1376 9.34497 10.4997 9.34497C9.86184 9.34497 9.34473 9.86208 9.34473 10.5C9.34473 11.1379 9.86184 11.655 10.4997 11.655Z" fill="white"/>
<path d="M14.814 10.4018C14.4744 9.52333 13.8848 8.76362 13.1181 8.21657C12.3514 7.66952 11.4412 7.35912 10.5001 7.32373C9.5589 7.35912 8.64872 7.66952 7.88203 8.21657C7.11535 8.76362 6.52576 9.52333 6.18615 10.4018C6.16321 10.4652 6.16321 10.5347 6.18615 10.5982C6.52576 11.4766 7.11535 12.2363 7.88203 12.7834C8.64872 13.3304 9.5589 13.6408 10.5001 13.6762C11.4412 13.6408 12.3514 13.3304 13.1181 12.7834C13.8848 12.2363 14.4744 11.4766 14.814 10.5982C14.8369 10.5347 14.8369 10.4652 14.814 10.4018ZM10.5001 12.3769C10.1289 12.3769 9.76599 12.2668 9.45734 12.0605C9.14869 11.8543 8.90812 11.5612 8.76607 11.2182C8.62401 10.8753 8.58684 10.4979 8.65926 10.1338C8.73168 9.76974 8.91044 9.43531 9.17292 9.17283C9.43541 8.91034 9.76983 8.73159 10.1339 8.65917C10.498 8.58675 10.8754 8.62392 11.2183 8.76597C11.5613 8.90803 11.8544 9.14859 12.0606 9.45724C12.2669 9.7659 12.3769 10.1288 12.3769 10.5C12.3762 10.9975 12.1782 11.4745 11.8264 11.8263C11.4746 12.1781 10.9976 12.3761 10.5001 12.3769Z" fill="white"/>
</svg>
