<svg width="37" height="37" viewBox="0 0 37 37" fill="none" xmlns="http://www.w3.org/2000/svg">
<path d="M18.5 34.6875C27.4401 34.6875 34.6875 27.4401 34.6875 18.5C34.6875 9.55988 27.4401 2.3125 18.5 2.3125C9.55988 2.3125 2.3125 9.55988 2.3125 18.5C2.3125 27.4401 9.55988 34.6875 18.5 34.6875ZM17.3438 12.7188C17.3438 12.4121 17.4656 12.118 17.6824 11.9012C17.8992 11.6843 18.1933 11.5625 18.5 11.5625C18.8067 11.5625 19.1008 11.6843 19.3176 11.9012C19.5344 12.118 19.6562 12.4121 19.6562 12.7188V17.3438H24.2812C24.5879 17.3438 24.882 17.4656 25.0988 17.6824C25.3157 17.8992 25.4375 18.1933 25.4375 18.5C25.4375 18.8067 25.3157 19.1008 25.0988 19.3176C24.882 19.5344 24.5879 19.6562 24.2812 19.6562H19.6562V24.2812C19.6562 24.5879 19.5344 24.882 19.3176 25.0988C19.1008 25.3157 18.8067 25.4375 18.5 25.4375C18.1933 25.4375 17.8992 25.3157 17.6824 25.0988C17.4656 24.882 17.3438 24.5879 17.3438 24.2812V19.6562H12.7188C12.4121 19.6562 12.118 19.5344 11.9012 19.3176C11.6843 19.1008 11.5625 18.8067 11.5625 18.5C11.5625 18.1933 11.6843 17.8992 11.9012 17.6824C12.118 17.4656 12.4121 17.3438 12.7188 17.3438H17.3438V12.7188Z" fill="#273543"/>
</svg>
