<svg width="27" height="27" viewBox="0 0 27 27" fill="none" xmlns="http://www.w3.org/2000/svg">
<path d="M25.3125 5.0625H21.9375V1.6875H20.25V5.0625H16.875V6.75H20.25V10.125H21.9375V6.75H25.3125V5.0625Z" fill="#273543"/>
<path d="M20.25 12.6562V19.0316C19.7393 18.7278 19.1567 18.5658 18.5625 18.5625C17.895 18.5625 17.2425 18.7604 16.6875 19.1313C16.1324 19.5021 15.6999 20.0292 15.4444 20.6459C15.189 21.2626 15.1221 21.9412 15.2524 22.5959C15.3826 23.2506 15.704 23.852 16.176 24.324C16.648 24.796 17.2494 25.1174 17.9041 25.2477C18.5588 25.3779 19.2374 25.311 19.8541 25.0556C20.4708 24.8001 20.9979 24.3676 21.3687 23.8125C21.7396 23.2575 21.9375 22.605 21.9375 21.9375V12.6562H20.25ZM18.5625 23.625C18.2287 23.625 17.9025 23.526 17.625 23.3406C17.3475 23.1552 17.1312 22.8916 17.0035 22.5833C16.8757 22.2749 16.8423 21.9356 16.9074 21.6083C16.9725 21.2809 17.1333 20.9803 17.3693 20.7443C17.6053 20.5083 17.9059 20.3475 18.2333 20.2824C18.5606 20.2173 18.8999 20.2507 19.2083 20.3785C19.5166 20.5062 19.7802 20.7225 19.9656 21C20.151 21.2775 20.25 21.6037 20.25 21.9375C20.2493 22.3848 20.0713 22.8137 19.755 23.13C19.4387 23.4463 19.0098 23.6243 18.5625 23.625Z" fill="#273543"/>
<path d="M14.3438 5.0625H8.4375C7.99009 5.06295 7.56112 5.24088 7.24475 5.55725C6.92838 5.87362 6.75045 6.30258 6.75 6.75V19.0316C6.23929 18.7278 5.65673 18.5659 5.0625 18.5625C4.39499 18.5625 3.74247 18.7604 3.18745 19.1313C2.63244 19.5021 2.19985 20.0292 1.94441 20.6459C1.68896 21.2626 1.62213 21.9412 1.75235 22.5959C1.88258 23.2506 2.20401 23.852 2.67602 24.324C3.14802 24.796 3.74939 25.1174 4.40407 25.2477C5.05876 25.3779 5.73736 25.311 6.35406 25.0556C6.97076 24.8001 7.49786 24.3676 7.86871 23.8125C8.23956 23.2575 8.4375 22.605 8.4375 21.9375V6.75H14.3438V5.0625ZM5.0625 23.625C4.72875 23.625 4.40248 23.526 4.12498 23.3406C3.84747 23.1552 3.63118 22.8916 3.50345 22.5833C3.37573 22.2749 3.34231 21.9356 3.40743 21.6083C3.47254 21.2809 3.63326 20.9803 3.86926 20.7443C4.10526 20.5083 4.40594 20.3475 4.73329 20.2824C5.06063 20.2173 5.39993 20.2507 5.70828 20.3785C6.01663 20.5062 6.28018 20.7225 6.46561 21C6.65103 21.2775 6.75 21.6037 6.75 21.9375C6.74955 22.3849 6.57162 22.8139 6.25525 23.1302C5.93888 23.4466 5.50992 23.6246 5.0625 23.625Z" fill="#273543"/>
</svg>
