<svg width="24" height="20" viewBox="0 0 24 20" fill="none" xmlns="http://www.w3.org/2000/svg">
<path d="M10.0001 15.8333C9.7664 15.8337 9.53996 15.7659 9.36005 15.6416C9.25879 15.5717 9.17509 15.4858 9.11374 15.3888C9.05239 15.2918 9.01459 15.1858 9.00251 15.0766C8.99044 14.9675 9.00432 14.8574 9.04337 14.7527C9.08241 14.6481 9.14585 14.5508 9.23005 14.4666L13.7101 9.99997L9.39005 5.52497C9.30699 5.43973 9.24495 5.34165 9.20752 5.23637C9.17009 5.13109 9.158 5.02068 9.17194 4.91149C9.18587 4.80229 9.22557 4.69648 9.28875 4.60011C9.35192 4.50375 9.43732 4.41874 9.54005 4.34997C9.64352 4.27411 9.76468 4.21688 9.89595 4.18189C10.0272 4.1469 10.1657 4.1349 10.3028 4.14664C10.4399 4.15837 10.5726 4.1936 10.6926 4.2501C10.8126 4.3066 10.9173 4.38316 11.0001 4.47497L15.8301 9.47497C15.9771 9.62408 16.0575 9.81112 16.0575 10.0041C16.0575 10.1972 15.9771 10.3842 15.8301 10.5333L10.8301 15.5333C10.7297 15.6342 10.6023 15.7139 10.4581 15.766C10.3139 15.8181 10.157 15.8412 10.0001 15.8333Z" fill="#333333"/>
</svg>
