<svg width="24" height="20" viewBox="0 0 24 20" fill="none" xmlns="http://www.w3.org/2000/svg">
<path d="M13.8299 15.8332C13.6805 15.8337 13.5329 15.8062 13.3979 15.7528C13.263 15.6995 13.144 15.6216 13.0499 15.5249L8.21992 10.5249C8.07284 10.3758 7.99243 10.1888 7.99243 9.99574C7.99243 9.80272 8.07284 9.61568 8.21992 9.46657L13.2199 4.46657C13.3897 4.29639 13.6336 4.18937 13.898 4.16905C14.1624 4.14874 14.4257 4.21679 14.6299 4.35824C14.8341 4.49969 14.9626 4.70295 14.9869 4.9233C15.0113 5.14366 14.9297 5.36306 14.7599 5.53324L10.2899 9.9999L14.6099 14.4666C14.7322 14.5889 14.8099 14.7378 14.8338 14.8958C14.8576 15.0538 14.8267 15.2141 14.7447 15.3579C14.6626 15.5017 14.5328 15.6228 14.3707 15.7071C14.2086 15.7913 14.021 15.8351 13.8299 15.8332Z" fill="#333333"/>
</svg>
