<svg width="24" height="24" viewBox="0 0 24 24" fill="none" xmlns="http://www.w3.org/2000/svg">
<path d="M17.5 13.307L7.57302 3.65699C7.42987 3.51783 7.25977 3.40941 7.07317 3.33841C6.88658 3.26741 6.68743 3.23533 6.48797 3.24413C6.28852 3.25293 6.09297 3.30244 5.91336 3.38961C5.73374 3.47677 5.57386 3.59975 5.44352 3.75099C5.16806 4.07071 5.02415 4.48304 5.04086 4.90473C5.05756 5.32642 5.23363 5.72606 5.53352 6.02299L10.5455 10.988" stroke="black" stroke-width="2" stroke-linecap="round"/>
<path d="M10.5452 10.988L5.08915 5.57749C4.77726 5.26826 4.36013 5.08817 3.92118 5.07324C3.48223 5.05832 3.05382 5.20966 2.72165 5.49699C2.56502 5.6325 2.43781 5.79866 2.34788 5.98523C2.25795 6.1718 2.2072 6.37482 2.19877 6.58176C2.19033 6.78871 2.22439 6.99518 2.29885 7.18845C2.3733 7.38172 2.48656 7.55769 2.63165 7.70549L8.12815 13.307" stroke="black" stroke-width="2" stroke-linecap="round" stroke-linejoin="round"/>
<path d="M8.12753 13.307L5.00003 10.25C4.69666 9.9402 4.28352 9.76231 3.84999 9.75483C3.41646 9.74734 2.99742 9.91086 2.68353 10.21C2.52915 10.3571 2.40542 10.5334 2.31946 10.7286C2.23351 10.9238 2.18703 11.1341 2.18271 11.3473C2.17838 11.5605 2.2163 11.7725 2.29428 11.9711C2.37225 12.1696 2.48874 12.3507 2.63703 12.504C7.25203 17.272 9.64703 19.524 10.5455 20.277C12 21.495 14.8675 22 16.3655 21C17.863 20 19.2165 18.577 19.859 17.1645C20.2415 16.3235 20.9845 13.7295 22.088 9.38399C22.1422 9.17071 22.1532 8.94875 22.1205 8.73114C22.0877 8.51354 22.0118 8.30467 21.8973 8.11679C21.7827 7.92891 21.6317 7.76581 21.4533 7.63705C21.2748 7.5083 21.0725 7.41648 20.858 7.36699C20.417 7.26505 19.9537 7.33794 19.5653 7.57037C19.1769 7.80279 18.8936 8.17667 18.775 8.61349L17.5 13.307" stroke="black" stroke-width="2" stroke-linecap="round"/>
<path d="M15.8579 6.33299C14.7846 4.73077 13.2624 3.48091 11.4819 2.73999" stroke="black" stroke-width="2" stroke-linecap="round"/>
<path d="M2.59692 16.888C3.58488 18.5443 5.03963 19.8723 6.77892 20.7055" stroke="black" stroke-width="2" stroke-linecap="round"/>
</svg>
