<svg width="26" height="31" viewBox="0 0 26 31" fill="none" xmlns="http://www.w3.org/2000/svg">
<path d="M17.25 0.416504H8.75V3.24984H17.25V0.416504ZM11.5833 18.8332H14.4167V10.3332H11.5833V18.8332ZM22.9592 9.469L24.9708 7.45734C24.3617 6.73484 23.6958 6.05484 22.9733 5.45984L20.9617 7.4715C18.7054 5.6558 15.8961 4.66606 13 4.6665C5.95917 4.6665 0.25 10.3757 0.25 17.4165C0.25 24.4573 5.945 30.1665 13 30.1665C15.4003 30.1678 17.7521 29.4911 19.7846 28.2143C21.8171 26.9375 23.4476 25.1125 24.4884 22.9496C25.5291 20.7867 25.9377 18.3738 25.6672 15.9889C25.3966 13.6039 24.4579 11.3438 22.9592 9.469ZM13 27.3332C7.5175 27.3332 3.08333 22.899 3.08333 17.4165C3.08333 11.934 7.5175 7.49984 13 7.49984C18.4825 7.49984 22.9167 11.934 22.9167 17.4165C22.9167 22.899 18.4825 27.3332 13 27.3332Z" fill="black"/>
</svg>
