<svg width="41" height="45" viewBox="0 0 41 45" fill="none" xmlns="http://www.w3.org/2000/svg">
<path fill-rule="evenodd" clip-rule="evenodd" d="M0.871338 21.275C0.871338 23.5492 1.77381 25.7303 3.38022 27.3384C4.98663 28.9466 7.1654 29.85 9.4372 29.85H18.0031V36.1857L14.8386 33.0179C14.377 32.5716 13.7588 32.3246 13.1171 32.3302C12.4754 32.3358 11.8616 32.5934 11.4078 33.0477C10.954 33.5019 10.6966 34.1164 10.6911 34.7588C10.6855 35.4012 10.9322 36.0201 11.378 36.4822L18.7202 43.8322C19.1791 44.2915 19.8015 44.5495 20.4505 44.5495C21.0994 44.5495 21.7218 44.2915 22.1808 43.8322L29.5229 36.4822C29.9688 36.0201 30.2154 35.4012 30.2099 34.7588C30.2043 34.1164 29.9469 33.5019 29.4931 33.0477C29.0394 32.5934 28.4255 32.3358 27.7838 32.3302C27.1421 32.3246 26.5239 32.5716 26.0623 33.0179L22.8979 36.1857V29.85H29.0163C30.5257 29.8491 32.0188 29.5377 33.4029 28.9349C34.787 28.3322 36.0326 27.4511 37.0623 26.3463C38.0921 25.2416 38.8839 23.9367 39.3888 22.5127C39.8937 21.0887 40.1008 19.5761 39.9972 18.0687C39.8937 16.5612 39.4817 15.0912 38.7869 13.7498C38.092 12.4084 37.1292 11.2243 35.9581 10.271C34.787 9.31776 33.4327 8.61563 31.9792 8.20826C30.5257 7.80088 29.004 7.69694 27.5087 7.9029C27.2197 6.62543 26.6779 5.41888 25.9154 4.3545C25.1528 3.29012 24.1849 2.38948 23.0689 1.70575C21.9529 1.02203 20.7113 0.569081 19.4175 0.373658C18.1238 0.178236 16.804 0.244298 15.5361 0.567944C14.2683 0.891591 13.078 1.46626 12.0357 2.25802C10.9934 3.04978 10.1201 4.04258 9.4674 5.17781C8.81472 6.31303 8.39586 7.56766 8.23556 8.86762C8.07527 10.1676 8.17678 11.4865 8.53412 12.7465C6.43025 12.9698 4.48335 13.9646 3.06852 15.5393C1.65369 17.114 0.871032 19.1571 0.871338 21.275ZM22.8979 29.85H18.0031V17.6C18.0031 16.9502 18.2609 16.3271 18.7199 15.8676C19.1789 15.4081 19.8014 15.15 20.4505 15.15C21.0996 15.15 21.7221 15.4081 22.181 15.8676C22.64 16.3271 22.8979 16.9502 22.8979 17.6V29.85Z" fill="black" fill-opacity="0.8"/>
</svg>
