<svg width="24" height="24" viewBox="0 0 24 24" fill="none" xmlns="http://www.w3.org/2000/svg">
<circle cx="12" cy="12" r="12" fill="#273543"/>
<path d="M12.5713 8.26367C11.6325 8.26367 10.8942 8.59635 10.3564 9.26172C9.81868 9.92708 9.5498 10.8454 9.5498 12.0166C9.5498 13.2425 9.80729 14.1699 10.3223 14.7988C10.8418 15.4277 11.5915 15.7422 12.5713 15.7422C12.9951 15.7422 13.4053 15.7012 13.8018 15.6191C14.1982 15.5326 14.6107 15.4232 15.0391 15.291V16.6924C14.2552 16.9886 13.3665 17.1367 12.373 17.1367C10.9102 17.1367 9.78678 16.6947 9.00293 15.8105C8.21908 14.9219 7.82715 13.6527 7.82715 12.0029C7.82715 10.9639 8.01628 10.0547 8.39453 9.27539C8.77734 8.49609 9.32878 7.89909 10.0488 7.48438C10.7689 7.06966 11.6143 6.8623 12.585 6.8623C13.6058 6.8623 14.5492 7.0765 15.415 7.50488L14.8271 8.86523C14.4899 8.70573 14.1322 8.56673 13.7539 8.44824C13.3802 8.3252 12.986 8.26367 12.5713 8.26367Z" fill="white"/>
</svg>
