<svg width="18" height="18" viewBox="0 0 18 18" fill="none" xmlns="http://www.w3.org/2000/svg">
<path d="M12.0899 7.085V7.06C12.0899 5.56 10.9199 4.46 9.14988 4.46C8.60806 4.45104 8.07091 4.56154 7.57661 4.78363C7.08231 5.00571 6.643 5.33395 6.28988 5.745C6.24082 5.79046 6.20139 5.84531 6.1739 5.90628C6.14642 5.96726 6.13145 6.03313 6.12988 6.1C6.12985 6.16169 6.14223 6.22276 6.16628 6.27957C6.19033 6.33638 6.22556 6.38777 6.26987 6.43069C6.31419 6.47361 6.36669 6.50717 6.42424 6.52939C6.48179 6.5516 6.54322 6.56201 6.60488 6.56C6.73697 6.55672 6.86327 6.50514 6.95988 6.415C7.22711 6.10184 7.55902 5.85029 7.93276 5.67766C8.3065 5.50504 8.7132 5.41543 9.12488 5.415C10.3049 5.415 11.0399 6.175 11.0399 7.12V7.145C11.0399 8.25 10.1599 8.865 8.76988 8.97C8.7136 8.97217 8.65841 8.98621 8.60792 9.01119C8.55744 9.03616 8.5128 9.07152 8.47693 9.11495C8.44105 9.15837 8.41476 9.20889 8.39976 9.26318C8.38476 9.31747 8.38139 9.37432 8.38988 9.43V10.805C8.40232 10.9288 8.46044 11.0434 8.55289 11.1267C8.64535 11.2099 8.7655 11.2556 8.88988 11.255H8.94488C9.06864 11.2426 9.18333 11.1844 9.26654 11.092C9.34975 10.9995 9.39551 10.8794 9.39488 10.755V9.725C10.8749 9.5 12.0899 8.725 12.0899 7.085Z" fill="black"/>
<path d="M8.88989 13.725C9.23507 13.725 9.51489 13.4452 9.51489 13.1C9.51489 12.7548 9.23507 12.475 8.88989 12.475C8.54471 12.475 8.26489 12.7548 8.26489 13.1C8.26489 13.4452 8.54471 13.725 8.88989 13.725Z" fill="black"/>
<path d="M16.5601 6.405C16.2562 6.54418 15.935 6.64173 15.6051 6.695C16.1327 8.1972 16.1344 9.83409 15.6099 11.3374C15.0853 12.8407 14.0657 14.1212 12.7181 14.9691C11.3704 15.8169 9.77474 16.1819 8.19253 16.0041C6.61032 15.8263 5.13543 15.1163 4.0096 13.9905C2.88376 12.8646 2.17376 11.3897 1.99596 9.80753C1.81816 8.22531 2.18311 6.62963 3.03099 5.282C3.87887 3.93437 5.15939 2.91474 6.66268 2.39021C8.16597 1.86568 9.80286 1.86737 11.3051 2.395C11.3584 2.06509 11.4559 1.74386 11.5951 1.44C9.8782 0.846356 8.01079 0.852391 6.2978 1.45712C4.58482 2.06185 3.1275 3.22954 2.16386 4.76947C1.20021 6.30941 0.787194 8.13059 0.992255 9.93557C1.19732 11.7406 2.00834 13.4227 3.29286 14.7072C4.57739 15.9917 6.25951 16.8027 8.06449 17.0078C9.86947 17.2129 11.6906 16.7998 13.2306 15.8362C14.7705 14.8726 15.9382 13.4152 16.5429 11.7023C17.1477 9.98927 17.1537 8.12186 16.5601 6.405Z" fill="black"/>
<path d="M15 5.5C16.3807 5.5 17.5 4.38071 17.5 3C17.5 1.61929 16.3807 0.5 15 0.5C13.6193 0.5 12.5 1.61929 12.5 3C12.5 4.38071 13.6193 5.5 15 5.5Z" fill="black"/>
</svg>
