<svg width="62" height="65" viewBox="0 0 62 65" fill="none" xmlns="http://www.w3.org/2000/svg">
<g filter="url(#filter0_d)">
<rect x="7" y="7" width="48.165" height="51.8239" rx="24.0825" fill="#5E3E7B"/>
</g>
<path d="M39.4049 25.799C39.2929 25.359 38.7489 25 38.1949 25H23.8049C23.2499 25 22.7059 25.359 22.5949 25.799L22.3939 27H39.6049L39.4049 25.799ZM40.4119 28H21.5869C21.5062 28.0001 21.4263 28.017 21.3524 28.0497C21.2786 28.0824 21.2124 28.1302 21.1581 28.19C21.1037 28.2497 21.0625 28.3202 21.037 28.3968C21.0115 28.4735 21.0023 28.5546 21.0099 28.635L21.9329 40.304C21.9513 40.4944 22.04 40.6712 22.1816 40.7999C22.3232 40.9286 22.5076 40.9999 22.6989 41H39.2999C39.4913 40.9999 39.6757 40.9286 39.8173 40.7999C39.9589 40.6712 40.0476 40.4944 40.0659 40.304L40.9889 28.635C40.9966 28.5546 40.9874 28.4735 40.9619 28.3968C40.9364 28.3202 40.8951 28.2497 40.8408 28.19C40.7865 28.1302 40.7203 28.0824 40.6464 28.0497C40.5726 28.017 40.4927 28.0001 40.4119 28ZM32.9419 35.521C32.8139 35.786 32.6839 35.8 32.7399 35.521C32.8859 34.8 32.7869 33.252 31.6969 33.08V36.374C31.6969 37.048 31.3859 37.636 30.5609 37.902C29.7589 38.158 28.8619 37.891 28.6529 37.316C28.4429 36.74 28.9139 36.04 29.7049 35.752C30.1469 35.591 30.6589 35.549 31.0039 35.682V31H31.6979C31.6969 32.633 34.5159 32.275 32.9419 35.521Z" fill="white"/>
<defs>
<filter id="filter0_d" x="0.557846" y="0.137846" width="61.0493" height="64.7082" filterUnits="userSpaceOnUse" color-interpolation-filters="sRGB">
<feFlood flood-opacity="0" result="BackgroundImageFix"/>
<feColorMatrix in="SourceAlpha" type="matrix" values="0 0 0 0 0 0 0 0 0 0 0 0 0 0 0 0 0 0 127 0"/>
<feOffset dy="-0.42"/>
<feGaussianBlur stdDeviation="3.22108"/>
<feColorMatrix type="matrix" values="0 0 0 0 0 0 0 0 0 0 0 0 0 0 0 0 0 0 0.1 0"/>
<feBlend mode="normal" in2="BackgroundImageFix" result="effect1_dropShadow"/>
<feBlend mode="normal" in="SourceGraphic" in2="effect1_dropShadow" result="shape"/>
</filter>
</defs>
</svg>
