<svg width="27" height="27" viewBox="0 0 27 27" fill="none" xmlns="http://www.w3.org/2000/svg">
<path d="M25.5495 14.1996C26.0909 13.4842 26.3906 12.6076 26.3906 11.6956C26.3906 10.2487 25.5817 8.87903 24.2798 8.11526C23.9446 7.91866 23.563 7.81519 23.1744 7.81555H15.4465L15.6398 3.85491C15.685 2.89778 15.3466 1.98899 14.6892 1.29612C14.3665 0.954607 13.9773 0.682888 13.5455 0.497754C13.1137 0.312619 12.6485 0.218002 12.1787 0.21975C10.5029 0.21975 9.02051 1.34768 8.57578 2.96223L5.80752 12.9847H1.64062C1.07021 12.9847 0.609375 13.4455 0.609375 14.0159V25.7464C0.609375 26.3168 1.07021 26.7777 1.64062 26.7777H21.0185C21.3149 26.7777 21.605 26.7197 21.8725 26.6036C23.4064 25.9494 24.3958 24.4509 24.3958 22.788C24.3958 22.382 24.3378 21.9823 24.2218 21.5956C24.7632 20.8802 25.0629 20.0036 25.0629 19.0916C25.0629 18.6856 25.0049 18.286 24.8889 17.8992C25.4303 17.1838 25.73 16.3072 25.73 15.3952C25.7235 14.9892 25.6655 14.5864 25.5495 14.1996ZM2.92969 24.4573V15.305H5.54004V24.4573H2.92969ZM23.4387 13.0814L22.7329 13.6937L23.1809 14.5122C23.3284 14.7819 23.405 15.0846 23.4032 15.392C23.4032 15.9238 23.1712 16.4297 22.7716 16.7778L22.0658 17.3901L22.5138 18.2086C22.6613 18.4783 22.7379 18.781 22.7361 19.0884C22.7361 19.6201 22.5041 20.1261 22.1045 20.4741L21.3987 21.0864L21.8467 21.905C21.9943 22.1746 22.0708 22.4774 22.069 22.7848C22.069 23.5067 21.6437 24.1576 20.9862 24.4541H7.60254V15.2019L10.8091 3.5842C10.8918 3.28643 11.0693 3.02372 11.3147 2.83589C11.5601 2.64806 11.86 2.54533 12.169 2.54329C12.414 2.54329 12.6557 2.61418 12.849 2.7592C13.1681 2.99768 13.3389 3.35862 13.3195 3.74211L13.0102 10.1359H23.1422C23.7158 10.4871 24.0703 11.0801 24.0703 11.6956C24.0703 12.2274 23.8383 12.7301 23.4387 13.0814Z" fill="white"/>
</svg>
