<svg width="63" height="66" viewBox="0 0 63 66" fill="none" xmlns="http://www.w3.org/2000/svg">
<g filter="url(#filter0_d)">
<rect x="7" y="7.42224" width="48.6376" height="52.0001" rx="24.3188" fill="#FD4569"/>
</g>
<path d="M43.917 29.8633H37.167C37.051 29.8633 36.9561 29.9582 36.9561 30.0742V31.3398C36.9561 31.4559 37.051 31.5508 37.167 31.5508H43.917C44.033 31.5508 44.128 31.4559 44.128 31.3398V30.0742C44.128 29.9582 44.033 29.8633 43.917 29.8633ZM40.3838 33.4492H37.167C37.051 33.4492 36.9561 33.5441 36.9561 33.6602V34.9258C36.9561 35.0418 37.051 35.1367 37.167 35.1367H40.3838C40.4998 35.1367 40.5948 35.0418 40.5948 34.9258V33.6602C40.5948 33.5441 40.4998 33.4492 40.3838 33.4492ZM31.5851 27.5034H30.4434C30.2799 27.5034 30.1481 27.6353 30.1481 27.7987V34.3378C30.1481 34.4327 30.1929 34.5197 30.2694 34.5751L34.1954 37.4386C34.3273 37.5335 34.5118 37.5071 34.6068 37.3753L35.2844 36.4498V36.4472C35.3793 36.3153 35.3503 36.1308 35.2185 36.0358L31.8778 33.6206V27.7987C31.8804 27.6353 31.7459 27.5034 31.5851 27.5034Z" fill="white"/>
<path d="M40.2203 36.7688H38.6963C38.5487 36.7688 38.4089 36.8453 38.3298 36.9719C37.9949 37.5019 37.6047 37.9923 37.1565 38.4405C36.3839 39.2131 35.4848 39.8195 34.4855 40.2414C33.4492 40.6791 32.3497 40.9006 31.2159 40.9006C30.0795 40.9006 28.98 40.6791 27.9464 40.2414C26.9471 39.8195 26.048 39.2131 25.2754 38.4405C24.5029 37.668 23.8964 36.7688 23.4745 35.7695C23.0368 34.7359 22.8154 33.6364 22.8154 32.5C22.8154 31.3636 23.0368 30.2667 23.4745 29.2305C23.8964 28.2312 24.5029 27.332 25.2754 26.5595C26.048 25.7869 26.9471 25.1805 27.9464 24.7586C28.98 24.3209 30.0821 24.0994 31.2159 24.0994C32.3524 24.0994 33.4519 24.3209 34.4855 24.7586C35.4848 25.1805 36.3839 25.7869 37.1565 26.5595C37.6047 27.0077 37.9949 27.4981 38.3298 28.0281C38.4089 28.1547 38.5487 28.2312 38.6963 28.2312H40.2203C40.4023 28.2312 40.5183 28.0413 40.4365 27.8805C38.7174 24.4606 35.2317 22.2379 31.3399 22.1931C25.6419 22.1219 20.909 26.7862 20.8985 32.4789C20.8879 38.1821 25.5101 42.8096 31.2133 42.8096C35.1552 42.8096 38.6989 40.5789 40.4365 37.1195C40.5183 36.9587 40.3996 36.7688 40.2203 36.7688Z" fill="white"/>
<defs>
<filter id="filter0_d" x="0.557846" y="0.560087" width="61.5219" height="64.8844" filterUnits="userSpaceOnUse" color-interpolation-filters="sRGB">
<feFlood flood-opacity="0" result="BackgroundImageFix"/>
<feColorMatrix in="SourceAlpha" type="matrix" values="0 0 0 0 0 0 0 0 0 0 0 0 0 0 0 0 0 0 127 0"/>
<feOffset dy="-0.42"/>
<feGaussianBlur stdDeviation="3.22108"/>
<feColorMatrix type="matrix" values="0 0 0 0 0 0 0 0 0 0 0 0 0 0 0 0 0 0 0.1 0"/>
<feBlend mode="normal" in2="BackgroundImageFix" result="effect1_dropShadow"/>
<feBlend mode="normal" in="SourceGraphic" in2="effect1_dropShadow" result="shape"/>
</filter>
</defs>
</svg>
