<svg width="63" height="66" viewBox="0 0 63 66" fill="none" xmlns="http://www.w3.org/2000/svg">
<g filter="url(#filter0_d)">
<rect x="7" y="7" width="49.1006" height="52.495" rx="24.5503" fill="#FFCB05"/>
</g>
<path d="M27.5 25.5C27.5 24.3065 27.9741 23.1619 28.818 22.318C29.6619 21.4741 30.8065 21 32 21C33.1935 21 34.3381 21.4741 35.182 22.318C36.0259 23.1619 36.5 24.3065 36.5 25.5V33C36.5 34.1935 36.0259 35.3381 35.182 36.182C34.3381 37.0259 33.1935 37.5 32 37.5C30.8065 37.5 29.6619 37.0259 28.818 36.182C27.9741 35.3381 27.5 34.1935 27.5 33V25.5Z" fill="white"/>
<path d="M25.25 30.75C25.4489 30.75 25.6397 30.829 25.7803 30.9697C25.921 31.1103 26 31.3011 26 31.5V33C26 34.5913 26.6321 36.1174 27.7574 37.2426C28.8826 38.3679 30.4087 39 32 39C33.5913 39 35.1174 38.3679 36.2426 37.2426C37.3679 36.1174 38 34.5913 38 33V31.5C38 31.3011 38.079 31.1103 38.2197 30.9697C38.3603 30.829 38.5511 30.75 38.75 30.75C38.9489 30.75 39.1397 30.829 39.2803 30.9697C39.421 31.1103 39.5 31.3011 39.5 31.5V33C39.5 34.8593 38.8094 36.6523 37.5622 38.0312C36.3149 39.4101 34.6 40.2766 32.75 40.4625V43.5H37.25C37.4489 43.5 37.6397 43.579 37.7803 43.7197C37.921 43.8603 38 44.0511 38 44.25C38 44.4489 37.921 44.6397 37.7803 44.7803C37.6397 44.921 37.4489 45 37.25 45H26.75C26.5511 45 26.3603 44.921 26.2197 44.7803C26.079 44.6397 26 44.4489 26 44.25C26 44.0511 26.079 43.8603 26.2197 43.7197C26.3603 43.579 26.5511 43.5 26.75 43.5H31.25V40.4625C29.4 40.2766 27.6851 39.4101 26.4378 38.0312C25.1906 36.6523 24.5 34.8593 24.5 33V31.5C24.5 31.3011 24.579 31.1103 24.7197 30.9697C24.8603 30.829 25.0511 30.75 25.25 30.75Z" fill="white"/>
<defs>
<filter id="filter0_d" x="0.557846" y="0.137846" width="61.9849" height="65.3794" filterUnits="userSpaceOnUse" color-interpolation-filters="sRGB">
<feFlood flood-opacity="0" result="BackgroundImageFix"/>
<feColorMatrix in="SourceAlpha" type="matrix" values="0 0 0 0 0 0 0 0 0 0 0 0 0 0 0 0 0 0 127 0"/>
<feOffset dy="-0.42"/>
<feGaussianBlur stdDeviation="3.22108"/>
<feColorMatrix type="matrix" values="0 0 0 0 0 0 0 0 0 0 0 0 0 0 0 0 0 0 0.1 0"/>
<feBlend mode="normal" in2="BackgroundImageFix" result="effect1_dropShadow"/>
<feBlend mode="normal" in="SourceGraphic" in2="effect1_dropShadow" result="shape"/>
</filter>
</defs>
</svg>
