<svg width="18" height="13" viewBox="0 0 18 13" fill="none" xmlns="http://www.w3.org/2000/svg">
<path d="M5.49992 10.5859L1.70692 6.79292C1.51832 6.61076 1.26571 6.50997 1.00352 6.51225C0.741321 6.51452 0.490508 6.61969 0.3051 6.8051C0.119692 6.99051 0.0145233 7.24132 0.0122448 7.50352C0.00996641 7.76571 0.110761 8.01832 0.292919 8.20692L4.79292 12.7069C4.98045 12.8944 5.23475 12.9997 5.49992 12.9997C5.76508 12.9997 6.01939 12.8944 6.20692 12.7069L17.2069 1.70692C17.3891 1.51832 17.4899 1.26571 17.4876 1.00352C17.4853 0.741321 17.3801 0.490509 17.1947 0.305101C17.0093 0.119692 16.7585 0.0145233 16.4963 0.0122448C16.2341 0.00996641 15.9815 0.110761 15.7929 0.292919L5.49992 10.5859Z" fill="white"/>
</svg>
