<svg width="17" height="17" viewBox="0 0 17 17" fill="none" xmlns="http://www.w3.org/2000/svg">
<path d="M2.99051 14.7178C2.26589 13.9951 1.69124 13.1363 1.29958 12.1908C0.907913 11.2453 0.706957 10.2317 0.708258 9.20834C0.708258 4.90521 4.1968 1.41667 8.49992 1.41667C12.803 1.41667 16.2916 4.90521 16.2916 9.20834C16.2929 10.2317 16.0919 11.2453 15.7003 12.1908C15.3086 13.1363 14.734 13.9951 14.0093 14.7178" stroke="black" stroke-width="1.41667" stroke-linecap="round" stroke-linejoin="round"/>
<path d="M4.99408 12.7145C4.53298 12.2546 4.16732 11.708 3.91812 11.1063C3.66892 10.5046 3.5411 9.85954 3.542 9.20826C3.542 6.46984 5.76191 4.24992 8.50033 4.24992" stroke="black" stroke-width="1.41667" stroke-linecap="round"/>
<path d="M8.50024 9.20826V6.37492" stroke="black" stroke-width="1.41667" stroke-linecap="round" stroke-linejoin="round"/>
</svg>
