<svg width="21" height="25" viewBox="0 0 21 25" fill="none" xmlns="http://www.w3.org/2000/svg">
<path d="M20.125 4.5H16.625V2C16.625 0.896875 15.8402 0 14.875 0H6.125C5.15977 0 4.375 0.896875 4.375 2V4.5H0.875C0.391016 4.5 0 4.94688 0 5.5V6.5C0 6.6375 0.0984375 6.75 0.21875 6.75H1.87031L2.5457 23.0938C2.58945 24.1594 3.36055 25 4.29297 25H16.707C17.6422 25 18.4105 24.1625 18.4543 23.0938L19.1297 6.75H20.7812C20.9016 6.75 21 6.6375 21 6.5V5.5C21 4.94688 20.609 4.5 20.125 4.5ZM14.6562 4.5H6.34375V2.25H14.6562V4.5Z" fill="#FF0000"/>
</svg>
