<svg width="21" height="23" viewBox="0 0 21 23" fill="none" xmlns="http://www.w3.org/2000/svg">
<path d="M15.1875 11.4998C16.707 11.4998 18.1642 12.1034 19.2387 13.1779C20.3131 14.2523 20.9167 15.7095 20.9167 17.229C20.9167 18.7485 20.3131 20.2057 19.2387 21.2801C18.1642 22.3546 16.707 22.9582 15.1875 22.9582C13.6681 22.9582 12.2108 22.3546 11.1364 21.2801C10.062 20.2057 9.45837 18.7485 9.45837 17.229C9.45837 15.7095 10.062 14.2523 11.1364 13.1779C12.2108 12.1034 13.6681 11.4998 15.1875 11.4998ZM10.5 0.822754C11.3648 0.822697 12.1967 1.15354 12.8253 1.74741C13.4538 2.34128 13.8313 3.15316 13.8802 4.0165L13.8855 4.20817H19.3542C19.5522 4.20823 19.7427 4.28342 19.8873 4.41856C20.032 4.55369 20.1199 4.73869 20.1334 4.93617C20.1469 5.13365 20.0849 5.32889 19.96 5.48244C19.8351 5.63599 19.6566 5.7364 19.4605 5.76338L19.3542 5.77067H18.525L18.0042 11.0696C17.525 10.8509 17.0146 10.6842 16.4834 10.5821L16.9553 5.77067H4.04379L5.36358 19.179C5.39281 19.4782 5.52465 19.758 5.73673 19.9711C5.94882 20.1841 6.22808 20.3172 6.52712 20.3478L6.65942 20.354H9.18025C9.47817 20.928 9.85733 21.454 10.3011 21.9165H6.65942C5.97969 21.9165 5.32212 21.6748 4.80421 21.2345C4.28631 20.7943 3.94183 20.1842 3.83233 19.5134L3.80837 19.3321L2.474 5.77067H1.64587C1.45708 5.77066 1.27468 5.70229 1.1324 5.5782C0.990125 5.45412 0.897591 5.28271 0.871916 5.09567L0.864624 4.98942C0.864632 4.80063 0.933002 4.61823 1.05709 4.47595C1.18118 4.33367 1.35259 4.24114 1.53962 4.21546L1.64587 4.20817H7.11462C7.11462 3.3103 7.4713 2.44921 8.10619 1.81432C8.74108 1.17943 9.60217 0.822754 10.5 0.822754ZM12.2875 14.1967L12.2146 14.2561L12.1552 14.329C12.0952 14.416 12.0631 14.5192 12.0631 14.6248C12.0631 14.7305 12.0952 14.8337 12.1552 14.9207L12.2146 14.9936L14.4511 17.229L12.2146 19.4644L12.1552 19.5373C12.0952 19.6243 12.0631 19.7275 12.0631 19.8332C12.0631 19.9388 12.0952 20.042 12.1552 20.129L12.2146 20.2019L12.2875 20.2613C12.3745 20.3213 12.4777 20.3535 12.5834 20.3535C12.6891 20.3535 12.7922 20.3213 12.8792 20.2613L12.9521 20.2019L15.1875 17.9655L17.423 20.2019L17.4959 20.2613C17.5829 20.3213 17.686 20.3535 17.7917 20.3535C17.8974 20.3535 18.0006 20.3213 18.0875 20.2613L18.1605 20.2019L18.2198 20.129C18.2799 20.042 18.312 19.9388 18.312 19.8332C18.312 19.7275 18.2799 19.6243 18.2198 19.5373L18.1605 19.4644L15.924 17.229L18.1605 14.9936L18.2198 14.9207C18.2799 14.8337 18.312 14.7305 18.312 14.6248C18.312 14.5192 18.2799 14.416 18.2198 14.329L18.1605 14.2561L18.0875 14.1967C18.0006 14.1367 17.8974 14.1045 17.7917 14.1045C17.686 14.1045 17.5829 14.1367 17.4959 14.1967L17.423 14.2561L15.1875 16.4925L12.9521 14.2561L12.8792 14.1967C12.8051 14.1453 12.7189 14.1141 12.629 14.1061C12.5392 14.0981 12.4488 14.1135 12.3667 14.1509L12.2875 14.1967ZM10.5 2.38525C10.0426 2.38527 9.60179 2.55731 9.26526 2.86721C8.92872 3.17712 8.72102 3.60223 8.68337 4.05817L8.67712 4.20817H12.323C12.323 3.7247 12.1309 3.26104 11.789 2.91917C11.4472 2.57731 10.9835 2.38525 10.5 2.38525Z" fill="#EB5757"/>
</svg>
