<svg width="17" height="23" viewBox="0 0 17 23" fill="none" xmlns="http://www.w3.org/2000/svg">
<path d="M1.40107 20.2603H15.599C15.8718 20.2604 16.134 20.3659 16.3307 20.5549C16.5275 20.7438 16.6437 21.0014 16.6549 21.274C16.6661 21.5466 16.5716 21.8129 16.391 22.0174C16.2105 22.2219 15.9578 22.3486 15.686 22.3712L15.599 22.3748H1.40107C1.12833 22.3746 0.866245 22.2689 0.669581 22.0799C0.472917 21.891 0.356887 21.6333 0.345734 21.3608C0.334581 21.0883 0.429167 20.822 0.609731 20.6176C0.790295 20.4132 1.04287 20.2864 1.31467 20.2639L1.40107 20.2603H15.599H1.40107ZM8.26259 0.779504L8.34898 0.775879C8.61433 0.775889 8.86997 0.87567 9.06516 1.05541C9.26035 1.23516 9.38082 1.48173 9.40265 1.74617L9.40627 1.83317V14.7219L12.302 11.8267C12.5003 11.6284 12.7693 11.517 13.0497 11.517C13.3301 11.517 13.5991 11.6284 13.7974 11.8267C13.9957 12.025 14.107 12.2939 14.107 12.5743C14.107 12.8548 13.9957 13.1237 13.7974 13.322L9.09815 18.0212C8.99997 18.1194 8.88341 18.1973 8.75513 18.2504C8.62684 18.3036 8.48935 18.3309 8.35049 18.3309C8.21164 18.3309 8.07414 18.3036 7.94586 18.2504C7.81758 18.1973 7.70102 18.1194 7.60284 18.0212L2.90363 13.322C2.70534 13.1237 2.59394 12.8548 2.59394 12.5743C2.59394 12.2939 2.70534 12.025 2.90363 11.8267C3.10192 11.6284 3.37086 11.517 3.65129 11.517C3.93171 11.517 4.20065 11.6284 4.39894 11.8267L7.29169 14.7194V1.83317C7.29171 1.56773 7.39158 1.31201 7.57145 1.11681C7.75132 0.9216 7.99804 0.801194 8.26259 0.779504L8.34898 0.775879L8.26259 0.779504Z" fill="#219653"/>
</svg>
