<svg width="30" height="30" viewBox="0 0 30 30" fill="none" xmlns="http://www.w3.org/2000/svg">
<path d="M11.25 3.75L13.75 3.75L13.75 6.25L11.25 6.25L11.25 3.75ZM16.25 3.75L18.75 3.75L18.75 6.25L16.25 6.25L16.25 3.75ZM11.25 8.75L13.75 8.75L13.75 11.25L11.25 11.25L11.25 8.75ZM16.25 8.75L18.75 8.75L18.75 11.25L16.25 11.25L16.25 8.75ZM11.25 13.75L13.75 13.75L13.75 16.25L11.25 16.25L11.25 13.75ZM16.25 13.75L18.75 13.75L18.75 16.25L16.25 16.25L16.25 13.75ZM11.25 18.75L13.75 18.75L13.75 21.25L11.25 21.25L11.25 18.75ZM16.25 18.75L18.75 18.75L18.75 21.25L16.25 21.25L16.25 18.75ZM11.25 23.75L13.75 23.75L13.75 26.25L11.25 26.25L11.25 23.75ZM16.25 23.75L18.75 23.75L18.75 26.25L16.25 26.25L16.25 23.75Z" fill="black"/>
</svg>
