<svg width="8" height="8" viewBox="0 0 8 8" fill="none" xmlns="http://www.w3.org/2000/svg">
<path d="M3.7261 6.52308C3.75668 6.5675 3.7976 6.60381 3.84533 6.6289C3.89306 6.65399 3.94618 6.66709 4.0001 6.66709C4.05402 6.66709 4.10714 6.65399 4.15487 6.6289C4.2026 6.60381 4.24352 6.5675 4.2741 6.52308L7.2741 2.18975C7.30883 2.13977 7.32919 2.08123 7.33298 2.02048C7.33677 1.95974 7.32384 1.89912 7.2956 1.84521C7.26735 1.7913 7.22488 1.74616 7.17278 1.7147C7.12068 1.68324 7.06096 1.66665 7.0001 1.66675H1.0001C0.939382 1.667 0.87988 1.6838 0.827995 1.71534C0.776109 1.74687 0.733802 1.79196 0.705624 1.84575C0.677446 1.89953 0.664463 1.95998 0.668071 2.02059C0.671679 2.0812 0.691741 2.13969 0.726101 2.18975L3.7261 6.52308Z" fill="#273543"/>
</svg>
