<svg width="13" height="21" viewBox="0 0 13 21" fill="none" xmlns="http://www.w3.org/2000/svg">
<path fill-rule="evenodd" clip-rule="evenodd" d="M7.3542 1.18728C7.1276 0.960752 6.82031 0.833496 6.49991 0.833496C6.1795 0.833496 5.87221 0.960752 5.64561 1.18728L0.812281 6.02061C0.643344 6.1896 0.528303 6.40488 0.4817 6.63924C0.435098 6.8736 0.459027 7.11652 0.550461 7.33728C0.641896 7.55804 0.796731 7.74674 0.995393 7.87952C1.19406 8.01229 1.42762 8.08319 1.66657 8.08324H11.3332C11.5722 8.08319 11.8058 8.01229 12.0044 7.87952C12.2031 7.74674 12.3579 7.55804 12.4493 7.33728C12.5408 7.11652 12.5647 6.8736 12.5181 6.63924C12.4715 6.40488 12.3565 6.1896 12.1875 6.02061L7.3542 1.18728ZM1.66657 12.9166C1.42762 12.9166 1.19406 12.9875 0.995393 13.1203C0.796731 13.2531 0.641896 13.4418 0.550461 13.6625C0.459027 13.8833 0.435098 14.1262 0.4817 14.3606C0.528303 14.5949 0.643344 14.8102 0.812281 14.9792L5.64561 19.8125C5.87221 20.0391 6.1795 20.1663 6.49991 20.1663C6.82031 20.1663 7.1276 20.0391 7.3542 19.8125L12.1875 14.9792C12.3565 14.8102 12.4715 14.5949 12.5181 14.3606C12.5647 14.1262 12.5408 13.8833 12.4493 13.6625C12.3579 13.4418 12.2031 13.2531 12.0044 13.1203C11.8058 12.9875 11.5722 12.9166 11.3332 12.9166H1.66657Z" fill="black" fill-opacity="0.7"/>
</svg>
