<svg width="14" height="12" viewBox="0 0 14 12" fill="none" xmlns="http://www.w3.org/2000/svg">
<path d="M10.3061 9.98182V7.6575L11.7836 6.21606V10.4503C11.7836 11.2971 11.0633 11.9998 10.2137 11.9998H1.56992C0.701847 11.9998 0 11.2971 0 10.4503V2.03588C0 1.18903 0.701847 0.486328 1.56992 0.486328H10.343V0.504346L8.86544 1.92777H2.0686C1.75462 1.92777 1.47757 2.19804 1.47757 2.52236V9.98182C1.47757 10.3061 1.75462 10.5584 2.0686 10.5584H9.71504C10.029 10.5584 10.3061 10.3061 10.3061 9.98182ZM11.7098 1.18903L13.2797 2.72056L14 2.01786L12.4301 0.486328L11.7098 1.18903ZM6.18734 6.59444L7.73879 8.12597L12.7441 3.24309L11.1926 1.71155L6.18734 6.59444ZM5.07916 9.18903L7.22164 8.63047L5.65172 7.09894L5.07916 9.18903Z" fill="black"/>
</svg>
