<svg width="13" height="13" viewBox="0 0 13 13" fill="none" xmlns="http://www.w3.org/2000/svg">
<path fill-rule="evenodd" clip-rule="evenodd" d="M2.70817 10.833H10.2915C10.4352 10.833 10.5729 10.8901 10.6745 10.9917C10.7761 11.0932 10.8332 11.231 10.8332 11.3747C10.8332 11.5183 10.7761 11.6561 10.6745 11.7577C10.5729 11.8593 10.4352 11.9163 10.2915 11.9163H2.70817C2.56451 11.9163 2.42674 11.8593 2.32515 11.7577C2.22357 11.6561 2.1665 11.5183 2.1665 11.3747C2.1665 11.231 2.22357 11.0932 2.32515 10.9917C2.42674 10.8901 2.56451 10.833 2.70817 10.833ZM2.1665 8.12467L7.58317 2.70801L9.20817 4.33301L3.7915 9.74967H2.1665V8.12467ZM8.12484 2.16634L9.20817 1.08301L10.8332 2.70801L9.7493 3.79188L8.12484 2.16634Z" fill="#BDBDBD"/>
</svg>
