<svg width="28" height="28" viewBox="0 0 28 28" fill="none" xmlns="http://www.w3.org/2000/svg">
<path d="M5.83333 3.5C4.53833 3.5 3.5 4.53833 3.5 5.83333V22.1667C3.5 22.7855 3.74583 23.379 4.18342 23.8166C4.621 24.2542 5.21449 24.5 5.83333 24.5H22.1667C22.7855 24.5 23.379 24.2542 23.8166 23.8166C24.2542 23.379 24.5 22.7855 24.5 22.1667V14H22.1667V22.1667H5.83333V5.83333H14V3.5H5.83333ZM20.7433 4.66667C20.5334 4.66844 20.3324 4.75217 20.1833 4.9L18.76 6.31167L21.6767 9.22833L23.1 7.81667C23.4033 7.51333 23.4033 7 23.1 6.70833L21.2917 4.9C21.14 4.74833 20.9417 4.66667 20.7433 4.66667ZM17.9317 7.14L9.33333 15.75V18.6667H12.25L20.8483 10.0567L17.9317 7.14Z" fill="#273543"/>
</svg>
