<svg width="21" height="21" viewBox="0 0 21 21" fill="none" xmlns="http://www.w3.org/2000/svg">
<path fill-rule="evenodd" clip-rule="evenodd" d="M14.5 16.5V10.5C14.5 9.96957 14.2893 9.46086 13.9142 9.08579C13.5391 8.71071 13.0304 8.5 12.5 8.5H3.5C2.96957 8.5 2.46086 8.71071 2.08579 9.08579C1.71071 9.46086 1.5 9.96957 1.5 10.5V16.5C1.5 17.0304 1.71071 17.5391 2.08579 17.9142C2.46086 18.2893 2.96957 18.5 3.5 18.5H12.5C13.0304 18.5 13.5391 18.2893 13.9142 17.9142C14.2893 17.5391 14.5 17.0304 14.5 16.5Z" stroke="black" stroke-linecap="round" stroke-linejoin="round"/>
<path d="M16.5 16.5V9.505C16.5 8.70936 16.1839 7.94629 15.6213 7.38368C15.0587 6.82108 14.2956 6.505 13.5 6.505H13.495L4.5 6.521" stroke="black" stroke-linecap="round" stroke-linejoin="round"/>
<path d="M18.5 14.5V8.507C18.5 7.44614 18.0786 6.42872 17.3284 5.67858C16.5783 4.92843 15.5609 4.507 14.5 4.507H14.493L6.5 4.52" stroke="black" stroke-linecap="round" stroke-linejoin="round"/>
</svg>
