<svg width="45" height="45" viewBox="0 0 45 45" fill="none" xmlns="http://www.w3.org/2000/svg">
<path d="M36.5625 25.3125C36.5625 28.0938 35.7378 30.8126 34.1925 33.1252C32.6473 35.4378 30.4511 37.2402 27.8815 38.3046C25.3119 39.3689 22.4844 39.6474 19.7566 39.1048C17.0287 38.5622 14.523 37.2229 12.5563 35.2562C10.5896 33.2895 9.25032 30.7838 8.70771 28.056C8.16511 25.3281 8.44359 22.5006 9.50795 19.931C10.5723 17.3614 12.3747 15.1652 14.6873 13.62C16.9999 12.0748 19.7187 11.25 22.5 11.25H28.125V18.2813L36.5625 9.84375L28.125 1.40625V8.4375H22.5C19.1624 8.4375 15.8998 9.4272 13.1248 11.2815C10.3497 13.1357 8.18677 15.7712 6.90954 18.8547C5.63231 21.9382 5.29813 25.3312 5.94926 28.6047C6.60038 31.8781 8.20757 34.8849 10.5676 37.2449C12.9276 39.6049 15.9344 41.2121 19.2079 41.8633C22.4813 42.5144 25.8743 42.1802 28.9578 40.903C32.0413 39.6257 34.6768 37.4628 36.5311 34.6878C38.3853 31.9127 39.375 28.6501 39.375 25.3125H36.5625Z" fill="black"/>
<path d="M27.6046 31.1208C26.9832 31.1361 26.3669 31.006 25.8046 30.7411C25.3053 30.4877 24.8756 30.116 24.553 29.6583C24.1994 29.1244 23.9512 28.5277 23.8218 27.9005C23.6556 27.1242 23.5755 26.3319 23.5827 25.538C23.577 24.7442 23.6572 23.9521 23.8218 23.1755C23.9538 22.5491 24.2018 21.9529 24.553 21.4177C24.8756 20.9601 25.3053 20.5883 25.8046 20.3349C26.3669 20.07 26.9832 19.94 27.6046 19.9552C28.1888 19.9108 28.7747 20.0167 29.3065 20.2628C29.8382 20.509 30.298 20.8872 30.6421 21.3615C31.3672 22.6086 31.7096 24.0415 31.6265 25.4818C31.7096 26.922 31.3672 28.3549 30.6421 29.6021C30.3111 30.097 29.857 30.4973 29.3244 30.7636C28.7919 31.0299 28.1992 31.153 27.6046 31.1208ZM27.6046 29.4052C27.8881 29.4221 28.1706 29.3585 28.4195 29.2216C28.6683 29.0848 28.8733 28.8803 29.0109 28.6318C29.3469 27.974 29.5251 27.247 29.5312 26.5083V24.5677C29.5616 23.8424 29.4219 23.12 29.1234 22.4583C28.9662 22.2175 28.7514 22.0197 28.4985 21.8827C28.2456 21.7458 27.9625 21.6741 27.6749 21.6741C27.3873 21.6741 27.1043 21.7458 26.8514 21.8827C26.5984 22.0197 26.3837 22.2175 26.2265 22.4583C25.9279 23.12 25.7883 23.8424 25.8187 24.5677V26.5083C25.7897 27.2381 25.9292 27.9647 26.2265 28.6318C26.3606 28.8769 26.5609 29.0794 26.8046 29.2161C27.0483 29.3529 27.3255 29.4184 27.6046 29.4052Z" fill="black"/>
<path d="M14.9486 30.9367V29.2773H17.7611V21.9789L15.1455 23.3852L14.3721 21.8945L17.6346 20.0664H19.6877V29.207H22.1908V30.9367H14.9486Z" fill="black"/>
</svg>
