<svg width="22" height="22" viewBox="0 0 22 22" fill="none" xmlns="http://www.w3.org/2000/svg">
<path fill-rule="evenodd" clip-rule="evenodd" d="M11 20.625C13.5527 20.625 16.0009 19.6109 17.8059 17.8059C19.6109 16.0009 20.625 13.5527 20.625 11C20.625 8.44729 19.6109 5.99913 17.8059 4.1941C16.0009 2.38906 13.5527 1.375 11 1.375C8.44729 1.375 5.99913 2.38906 4.1941 4.1941C2.38906 5.99913 1.375 8.44729 1.375 11C1.375 13.5527 2.38906 16.0009 4.1941 17.8059C5.99913 19.6109 8.44729 20.625 11 20.625ZM11 22C13.9174 22 16.7153 20.8411 18.7782 18.7782C20.8411 16.7153 22 13.9174 22 11C22 8.08262 20.8411 5.28473 18.7782 3.22183C16.7153 1.15893 13.9174 0 11 0C8.08262 0 5.28473 1.15893 3.22183 3.22183C1.15893 5.28473 0 8.08262 0 11C0 13.9174 1.15893 16.7153 3.22183 18.7782C5.28473 20.8411 8.08262 22 11 22Z" fill="#F2C94C"/>
<path fill-rule="evenodd" clip-rule="evenodd" d="M10.5133 15.6116C10.4492 15.5478 10.3984 15.4719 10.3638 15.3884C10.3291 15.3049 10.3113 15.2153 10.3113 15.1249C10.3113 15.0345 10.3291 14.9449 10.3638 14.8614C10.3984 14.7779 10.4492 14.702 10.5133 14.6381L14.1529 10.9999L10.5133 7.36164C10.4493 7.29772 10.3986 7.22184 10.364 7.13832C10.3294 7.0548 10.3116 6.96529 10.3116 6.87489C10.3116 6.78449 10.3294 6.69498 10.364 6.61146C10.3986 6.52795 10.4493 6.45206 10.5133 6.38814C10.5772 6.32422 10.6531 6.27352 10.7366 6.23892C10.8201 6.20433 10.9096 6.18652 11 6.18652C11.0904 6.18652 11.1799 6.20433 11.2634 6.23892C11.347 6.27352 11.4228 6.32422 11.4868 6.38814L15.6118 10.5131C15.6758 10.577 15.7266 10.6529 15.7612 10.7364C15.7959 10.8199 15.8137 10.9095 15.8137 10.9999C15.8137 11.0903 15.7959 11.1799 15.7612 11.2634C15.7266 11.3469 15.6758 11.4228 15.6118 11.4866L11.4868 15.6116C11.4229 15.6757 11.347 15.7265 11.2635 15.7611C11.18 15.7958 11.0904 15.8136 11 15.8136C10.9096 15.8136 10.82 15.7958 10.7365 15.7611C10.653 15.7265 10.5771 15.6757 10.5133 15.6116Z" fill="#F2C94C"/>
<path fill-rule="evenodd" clip-rule="evenodd" d="M6.1875 11C6.1875 10.8177 6.25993 10.6428 6.38886 10.5139C6.5178 10.3849 6.69266 10.3125 6.875 10.3125H13.75C13.9323 10.3125 14.1072 10.3849 14.2361 10.5139C14.3651 10.6428 14.4375 10.8177 14.4375 11C14.4375 11.1823 14.3651 11.3572 14.2361 11.4861C14.1072 11.6151 13.9323 11.6875 13.75 11.6875H6.875C6.69266 11.6875 6.5178 11.6151 6.38886 11.4861C6.25993 11.3572 6.1875 11.1823 6.1875 11Z" fill="#F2C94C"/>
</svg>
