<svg width="29" height="29" viewBox="0 0 29 29" fill="none" xmlns="http://www.w3.org/2000/svg">
<path d="M11.7812 13.5938V20.8438L18.125 17.2188L11.7812 13.5938Z" fill="black"/>
<path d="M23.5625 25.375H5.4375C4.95694 25.3745 4.4962 25.1834 4.1564 24.8436C3.81659 24.5038 3.62548 24.0431 3.625 23.5625V10.875C3.62548 10.3944 3.81659 9.9337 4.1564 9.5939C4.4962 9.25409 4.95694 9.06298 5.4375 9.0625H23.5625C24.0431 9.06298 24.5038 9.25409 24.8436 9.5939C25.1834 9.9337 25.3745 10.3944 25.375 10.875V23.5625C25.3745 24.0431 25.1834 24.5038 24.8436 24.8436C24.5038 25.1834 24.0431 25.3745 23.5625 25.375ZM5.4375 10.875V23.5625H23.5625V10.875H5.4375Z" fill="black"/>
<path d="M5.4375 5.4375H23.5625V7.25H5.4375V5.4375Z" fill="black"/>
<path d="M7.25 1.8125H21.75V3.625H7.25V1.8125Z" fill="black"/>
</svg>
