<svg width="22" height="23" viewBox="0 0 22 23" fill="none" xmlns="http://www.w3.org/2000/svg">
<path d="M17.783 1.92127C17.7525 1.73796 17.683 1.56333 17.5792 1.40915C17.4755 1.25498 17.3398 1.12484 17.1815 1.02751C17.0232 0.930181 16.8459 0.867926 16.6615 0.844942C16.4771 0.821958 16.2899 0.838779 16.1125 0.89427L7.01251 3.73737C6.7479 3.81998 6.51663 3.985 6.35245 4.20834C6.18827 4.43169 6.09978 4.70167 6.09991 4.97887V15.5505C5.5142 15.1112 4.79734 14.8825 4.06546 14.9016C3.33358 14.9206 2.62957 15.1862 2.06748 15.6553C1.50539 16.1244 1.11815 16.7695 0.968514 17.4862C0.818876 18.2029 0.915601 18.9491 1.24302 19.6039C1.57043 20.2587 2.10936 20.7838 2.77248 21.0941C3.4356 21.4044 4.18406 21.4817 4.8966 21.3135C5.60914 21.1453 6.24402 20.7415 6.69836 20.1674C7.15271 19.5933 7.39991 18.8826 7.39991 18.1505V8.87887L16.4999 6.03447V9.72907C16.9398 9.76877 17.375 9.84928 17.7999 9.96957V2.13447C17.7999 2.06167 17.7934 1.99017 17.783 1.92127ZM21.6999 16.8505C21.6999 18.402 21.0836 19.89 19.9865 20.987C18.8894 22.0841 17.4014 22.7005 15.8499 22.7005C14.2984 22.7005 12.8104 22.0841 11.7133 20.987C10.6162 19.89 9.9999 18.402 9.9999 16.8505C9.9999 15.299 10.6162 13.811 11.7133 12.7139C12.8104 11.6168 14.2984 11.0005 15.8499 11.0005C17.4014 11.0005 18.8894 11.6168 19.9865 12.7139C21.0836 13.811 21.6999 15.299 21.6999 16.8505ZM18.758 16.2837L14.8658 14.1387C14.7668 14.0839 14.6552 14.0559 14.5421 14.0575C14.429 14.0591 14.3182 14.0902 14.2208 14.1477C14.1234 14.2052 14.0426 14.2872 13.9866 14.3854C13.9305 14.4837 13.9011 14.5949 13.9012 14.7081V18.9981C13.9011 19.1112 13.9305 19.2224 13.9866 19.3207C14.0426 19.419 14.1234 19.5009 14.2208 19.5584C14.3182 19.6159 14.429 19.647 14.5421 19.6486C14.6552 19.6502 14.7668 19.6222 14.8658 19.5675L18.758 17.4225C18.8599 17.3664 18.9449 17.2839 19.0041 17.1838C19.0633 17.0836 19.0945 16.9694 19.0945 16.8531C19.0945 16.7367 19.0633 16.6225 19.0041 16.5224C18.9449 16.4222 18.8599 16.3398 18.758 16.2837Z" fill="black"/>
</svg>
