<svg width="20" height="20" viewBox="0 0 20 20" fill="none" xmlns="http://www.w3.org/2000/svg">
<path d="M18.2501 15.6278L18.0612 15.4611C17.5254 14.9837 17.0563 14.4362 16.6668 13.8334C16.2414 13.0014 15.9864 12.0929 15.9168 11.1611V8.4167C15.9205 6.95315 15.3896 5.53863 14.4239 4.43891C13.4582 3.33918 12.1241 2.62996 10.6724 2.44448V1.72781C10.6724 1.53111 10.5942 1.34246 10.4551 1.20337C10.316 1.06428 10.1274 0.986145 9.93069 0.986145C9.73399 0.986145 9.54534 1.06428 9.40625 1.20337C9.26716 1.34246 9.18903 1.53111 9.18903 1.72781V2.45559C7.75028 2.65444 6.43234 3.36795 5.47932 4.46398C4.52629 5.56001 4.00276 6.96428 4.00569 8.4167V11.1611C3.93611 12.0929 3.68112 13.0014 3.25569 13.8334C2.87285 14.4347 2.41135 14.9821 1.88347 15.4611L1.69458 15.6278V17.1945H18.2501V15.6278Z" fill="black"/>
<path d="M8.51114 17.7778C8.55986 18.1299 8.73436 18.4526 9.00241 18.6861C9.27046 18.9196 9.61396 19.0482 9.96947 19.0482C10.325 19.0482 10.6685 18.9196 10.9365 18.6861C11.2046 18.4526 11.3791 18.1299 11.4278 17.7778H8.51114Z" fill="black"/>
</svg>
