<svg width="52" height="52" viewBox="0 0 52 52" fill="none" xmlns="http://www.w3.org/2000/svg">
<circle cx="26" cy="26" r="26" fill="#F2C94C"/>
<g clip-path="url(#clip0)">
<path d="M36.8279 27.2845C38.846 27.1049 40.4421 27.5004 41.7836 28.1906C42.3563 28.4637 41.7005 29.072 40.8858 28.684C39.1496 28.0617 38.7426 27.7884 36.7706 27.8799C36.182 27.8729 36.2409 27.3466 36.8279 27.2845ZM28.9655 26.609C28.7213 26.0945 27.802 25.6672 26.9469 26.6705C26.9469 26.6705 27.4105 21.952 27.428 21.4969C27.6444 20.4732 26.4195 20.7894 26.3173 20.8753C24.0811 22.3545 21.5266 30.7384 21.5266 30.7384C21.8008 26.8383 22.7628 21.7989 23.4264 16.8717C23.4763 16.3844 22.5993 16.6208 22.5993 16.6208C18.7271 18.0017 17.9014 28.0792 16.9492 28.1207C16.6746 25.2992 16.8548 24.8758 15.8384 24.9546C14.4691 25.2757 14.8919 25.8035 13.0925 27.391C12.0238 27.0244 10.3929 27.1753 10.3929 27.1753C9.85732 27.2714 9.88089 27.7368 10.3929 27.7617C11.2815 27.7092 12.8483 27.9193 13.6491 27.928C14.6501 27.8955 14.9109 27.0885 15.2771 27.0614C15.6416 31.2895 15.6221 30.6484 16.6891 30.6942C18.8144 30.1958 19.6788 23.7253 21.4851 19.468C20.4472 25.2216 19.5955 30.9695 19.6851 34.7154C19.7063 35.6051 20.1897 35.4447 20.8134 35.3865C21.9074 35.2844 23.7398 28.2885 25.6587 24.09C25.5212 25.1843 25.1919 29.2616 25.1919 29.2616C25.2544 29.6965 26.541 29.5966 26.6623 29.317L27.7682 27.5487C28.7656 29.3437 28.8827 29.133 29.5354 29.133C30.1931 29.133 30.8654 28.074 30.8654 28.074C31.0571 28.335 31.1649 28.629 31.2641 28.6917C31.436 28.8613 32.2428 28.8504 32.473 28.7277C32.473 28.7277 33.6511 28.0038 34.5594 27.8872C35.7799 27.7837 35.5143 27.2202 34.5594 27.1811C33.9025 27.149 32.4058 27.6684 32.4058 27.6684C31.9223 26.3382 32.1796 26.3404 31.2075 26.3057C30.4826 26.2882 29.5559 27.6917 29.5559 27.6917C29.5559 27.6917 29.1765 27.0534 28.9655 26.609Z" fill="#FF0000"/>
<path d="M35.5 23C34.8906 23 34.3076 22.8813 33.751 22.644C33.1943 22.4067 32.7153 22.0874 32.314 21.686C31.9126 21.2847 31.5933 20.8057 31.356 20.249C31.1187 19.6924 31 19.1094 31 18.5C31 17.8906 31.1187 17.3076 31.356 16.751C31.5933 16.1943 31.9126 15.7153 32.314 15.314C32.7153 14.9126 33.1943 14.5933 33.751 14.356C34.3076 14.1187 34.8906 14 35.5 14C36.1094 14 36.6924 14.1187 37.249 14.356C37.8057 14.5933 38.2847 14.9126 38.686 15.314C39.0874 15.7153 39.4067 16.1943 39.644 16.751C39.8813 17.3076 40 17.8906 40 18.5C40 19.1094 39.8813 19.6924 39.644 20.249C39.4067 20.8057 39.0874 21.2847 38.686 21.686C38.2847 22.0874 37.8057 22.4067 37.249 22.644C36.6924 22.8813 36.1094 23 35.5 23ZM35.5 14.5625C34.9668 14.5625 34.457 14.6665 33.9707 14.8745C33.4844 15.0825 33.0654 15.3623 32.7139 15.7139C32.3623 16.0654 32.0825 16.4844 31.8745 16.9707C31.6665 17.457 31.5625 17.9683 31.5625 18.5044C31.5625 19.0405 31.6665 19.5503 31.8745 20.0337C32.0825 20.5171 32.3623 20.9346 32.7139 21.2861C33.0654 21.6377 33.4844 21.9175 33.9707 22.1255C34.457 22.3335 34.9668 22.4375 35.5 22.4375C36.0332 22.4375 36.543 22.3335 37.0293 22.1255C37.5156 21.9175 37.9346 21.6377 38.2861 21.2861C38.6377 20.9346 38.9175 20.5171 39.1255 20.0337C39.3335 19.5503 39.4375 19.0405 39.4375 18.5044C39.4375 17.9683 39.3335 17.457 39.1255 16.9707C38.9175 16.4844 38.6377 16.0654 38.2861 15.7139C37.9346 15.3623 37.5156 15.0825 37.0293 14.8745C36.543 14.6665 36.0332 14.5625 35.5 14.5625ZM35.5 20.75C34.8789 20.75 34.3486 20.5303 33.9092 20.0908C33.4697 19.6514 33.25 19.1211 33.25 18.5C33.25 17.8789 33.4697 17.3486 33.9092 16.9092C34.3486 16.4697 34.8789 16.25 35.5 16.25C36.1211 16.25 36.6514 16.4697 37.0908 16.9092C37.5303 17.3486 37.75 17.8789 37.75 18.5C37.75 19.1211 37.5303 19.6514 37.0908 20.0908C36.6514 20.5303 36.1211 20.75 35.5 20.75Z" fill="#FF0000"/>
</g>
<defs>
<clipPath id="clip0">
<rect width="32" height="32" fill="white" transform="translate(10 10)"/>
</clipPath>
</defs>
</svg>
