<svg width="32" height="32" viewBox="0 0 32 32" fill="none" xmlns="http://www.w3.org/2000/svg">
<path d="M16.0002 18.6663C16.7074 18.6663 17.3857 18.3854 17.8858 17.8853C18.3859 17.3852 18.6668 16.7069 18.6668 15.9997C18.6668 15.2924 18.3859 14.6142 17.8858 14.1141C17.3857 13.614 16.7074 13.333 16.0002 13.333C15.2929 13.333 14.6146 13.614 14.1145 14.1141C13.6144 14.6142 13.3335 15.2924 13.3335 15.9997C13.3335 16.7069 13.6144 17.3852 14.1145 17.8853C14.6146 18.3854 15.2929 18.6663 16.0002 18.6663ZM8.00016 18.6663C8.70741 18.6663 9.38568 18.3854 9.88578 17.8853C10.3859 17.3852 10.6668 16.7069 10.6668 15.9997C10.6668 15.2924 10.3859 14.6142 9.88578 14.1141C9.38568 13.614 8.70741 13.333 8.00016 13.333C7.29292 13.333 6.61464 13.614 6.11454 14.1141C5.61445 14.6142 5.3335 15.2924 5.3335 15.9997C5.3335 16.7069 5.61445 17.3852 6.11454 17.8853C6.61464 18.3854 7.29292 18.6663 8.00016 18.6663ZM24.0002 18.6663C24.7074 18.6663 25.3857 18.3854 25.8858 17.8853C26.3859 17.3852 26.6668 16.7069 26.6668 15.9997C26.6668 15.2924 26.3859 14.6142 25.8858 14.1141C25.3857 13.614 24.7074 13.333 24.0002 13.333C23.2929 13.333 22.6146 13.614 22.1145 14.1141C21.6144 14.6142 21.3335 15.2924 21.3335 15.9997C21.3335 16.7069 21.6144 17.3852 22.1145 17.8853C22.6146 18.3854 23.2929 18.6663 24.0002 18.6663Z" fill="#273543"/>
</svg>
