<svg width="53" height="53" viewBox="0 0 53 53" fill="none" xmlns="http://www.w3.org/2000/svg">
<path d="M26.5 3.3125C13.6951 3.3125 3.3125 13.6951 3.3125 26.5C3.3125 39.3049 13.6951 49.6875 26.5 49.6875C39.3049 49.6875 49.6875 39.3049 49.6875 26.5C49.6875 13.6951 39.3049 3.3125 26.5 3.3125ZM22.3594 34.3672C22.3594 34.5949 22.173 34.7812 21.9453 34.7812H19.4609C19.2332 34.7812 19.0469 34.5949 19.0469 34.3672V18.6328C19.0469 18.4051 19.2332 18.2188 19.4609 18.2188H21.9453C22.173 18.2188 22.3594 18.4051 22.3594 18.6328V34.3672ZM33.9531 34.3672C33.9531 34.5949 33.7668 34.7812 33.5391 34.7812H31.0547C30.827 34.7812 30.6406 34.5949 30.6406 34.3672V18.6328C30.6406 18.4051 30.827 18.2188 31.0547 18.2188H33.5391C33.7668 18.2188 33.9531 18.4051 33.9531 18.6328V34.3672Z" fill="#FFC423"/>
</svg>
