<svg width="35" height="35" viewBox="0 0 35 35" fill="none" xmlns="http://www.w3.org/2000/svg">
<path d="M17.5 32.8125C13.4389 32.8125 9.54408 31.1992 6.67243 28.3276C3.80078 25.4559 2.1875 21.5611 2.1875 17.5C2.1875 13.4389 3.80078 9.54408 6.67243 6.67243C9.54408 3.80078 13.4389 2.1875 17.5 2.1875C21.5611 2.1875 25.4559 3.80078 28.3276 6.67243C31.1992 9.54408 32.8125 13.4389 32.8125 17.5C32.8125 21.5611 31.1992 25.4559 28.3276 28.3276C25.4559 31.1992 21.5611 32.8125 17.5 32.8125ZM17.5 35C22.1413 35 26.5925 33.1563 29.8744 29.8744C33.1563 26.5925 35 22.1413 35 17.5C35 12.8587 33.1563 8.40752 29.8744 5.12563C26.5925 1.84374 22.1413 0 17.5 0C12.8587 0 8.40752 1.84374 5.12563 5.12563C1.84374 8.40752 0 12.8587 0 17.5C0 22.1413 1.84374 26.5925 5.12563 29.8744C8.40752 33.1563 12.8587 35 17.5 35Z" fill="black"/>
<path d="M13.7178 11.0589C13.8967 10.9667 14.0976 10.9257 14.2983 10.9404C14.4989 10.9551 14.6917 11.0248 14.8553 11.142L22.5116 16.6107C22.6533 16.7119 22.7689 16.8455 22.8487 17.0003C22.9284 17.1552 22.97 17.3269 22.97 17.501C22.97 17.6752 22.9284 17.8469 22.8487 18.0017C22.7689 18.1566 22.6533 18.2902 22.5116 18.3914L14.8553 23.8601C14.6918 23.9772 14.4991 24.0468 14.2985 24.0615C14.0979 24.0762 13.8972 24.0353 13.7183 23.9432C13.5395 23.8512 13.3895 23.7117 13.2848 23.5399C13.1801 23.3682 13.1248 23.1709 13.125 22.9698V12.0323C13.1248 11.8312 13.18 11.634 13.2846 11.4623C13.3892 11.2905 13.5391 11.1509 13.7178 11.0589Z" fill="black"/>
</svg>
