<svg width="20" height="20" viewBox="0 0 20 20" fill="none" xmlns="http://www.w3.org/2000/svg">
<path d="M10 20C8.64583 20 7.35026 19.7363 6.11328 19.209C4.8763 18.6816 3.81185 17.972 2.91992 17.0801C2.02799 16.1882 1.31836 15.1237 0.791016 13.8867C0.263672 12.6497 0 11.3542 0 10C0 8.64583 0.263672 7.35026 0.791016 6.11328C1.31836 4.8763 2.02799 3.81185 2.91992 2.91992C3.81185 2.02799 4.8763 1.31836 6.11328 0.791016C7.35026 0.263672 8.64583 0 10 0C11.3542 0 12.6497 0.263672 13.8867 0.791016C15.1237 1.31836 16.1882 2.02799 17.0801 2.91992C17.972 3.81185 18.6816 4.8763 19.209 6.11328C19.7363 7.35026 20 8.64583 20 10C20 11.3542 19.7363 12.6497 19.209 13.8867C18.6816 15.1237 17.972 16.1882 17.0801 17.0801C16.1882 17.972 15.1237 18.6816 13.8867 19.209C12.6497 19.7363 11.3542 20 10 20ZM10 1.25C8.8151 1.25 7.68229 1.48112 6.60156 1.94336C5.52083 2.4056 4.58984 3.02734 3.80859 3.80859C3.02734 4.58984 2.4056 5.52083 1.94336 6.60156C1.48112 7.68229 1.25 8.8151 1.25 10C1.25 11.1849 1.48112 12.3177 1.94336 13.3984C2.4056 14.4792 3.02734 15.4102 3.80859 16.1914C4.58984 16.9727 5.52083 17.5944 6.60156 18.0566C7.68229 18.5189 8.8151 18.75 10 18.75C11.1849 18.75 12.3177 18.5189 13.3984 18.0566C14.4792 17.5944 15.4102 16.9727 16.1914 16.1914C16.9727 15.4102 17.5944 14.4792 18.0566 13.3984C18.5189 12.3177 18.75 11.1849 18.75 10C18.75 8.8151 18.5189 7.68229 18.0566 6.60156C17.5944 5.52083 16.9727 4.58984 16.1914 3.80859C15.4102 3.02734 14.4792 2.4056 13.3984 1.94336C12.3177 1.48112 11.1849 1.25 10 1.25ZM6.85547 14.9023C6.6862 15.0716 6.48438 15.026 6.25 14.7656V5.23438C6.4974 4.97396 6.69922 4.92839 6.85547 5.09766L14.8438 9.62891C14.9479 9.73307 15 9.85677 15 10C15 10.1432 14.9479 10.2669 14.8438 10.3711L6.85547 14.9023Z" fill="black"/>
</svg>
