<svg width="44" height="44" viewBox="0 0 44 44" fill="none" xmlns="http://www.w3.org/2000/svg">
<path d="M44 22C44 27.8348 41.6822 33.4305 37.5564 37.5564C33.4305 41.6822 27.8348 44 22 44C16.1652 44 10.5695 41.6822 6.44365 37.5564C2.31785 33.4305 0 27.8348 0 22C0 16.1652 2.31785 10.5695 6.44365 6.44365C10.5695 2.31785 16.1652 0 22 0C27.8348 0 33.4305 2.31785 37.5564 6.44365C41.6822 10.5695 44 16.1652 44 22ZM18.6725 14.0057C18.4669 13.8594 18.225 13.7724 17.9732 13.7544C17.7215 13.7363 17.4696 13.7879 17.2453 13.9035C17.0209 14.0191 16.8327 14.1942 16.7012 14.4097C16.5698 14.6251 16.5002 14.8726 16.5 15.125V28.875C16.5002 29.1274 16.5698 29.3749 16.7012 29.5903C16.8327 29.8058 17.0209 29.9809 17.2453 30.0965C17.4696 30.2121 17.7215 30.2637 17.9732 30.2456C18.225 30.2276 18.4669 30.1406 18.6725 29.9942L28.2975 23.1192C28.4757 22.9921 28.621 22.8241 28.7213 22.6295C28.8215 22.4348 28.8738 22.219 28.8738 22C28.8738 21.781 28.8215 21.5652 28.7213 21.3705C28.621 21.1759 28.4757 21.0079 28.2975 20.8808L18.6725 14.0057Z" fill="#FFC423"/>
</svg>
