<svg width="15" height="15" viewBox="0 0 15 15" fill="none" xmlns="http://www.w3.org/2000/svg">
<path d="M8.125 0.9375C8.125 0.68886 8.02623 0.450403 7.85041 0.274587C7.6746 0.0987719 7.43614 0 7.1875 0C6.93886 0 6.7004 0.0987719 6.52459 0.274587C6.34877 0.450403 6.25 0.68886 6.25 0.9375V6.25H0.9375C0.68886 6.25 0.450403 6.34877 0.274587 6.52459C0.0987719 6.7004 0 6.93886 0 7.1875C0 7.43614 0.0987719 7.6746 0.274587 7.85041C0.450403 8.02623 0.68886 8.125 0.9375 8.125H6.25V13.4375C6.25 13.6861 6.34877 13.9246 6.52459 14.1004C6.7004 14.2762 6.93886 14.375 7.1875 14.375C7.43614 14.375 7.6746 14.2762 7.85041 14.1004C8.02623 13.9246 8.125 13.6861 8.125 13.4375V8.125H13.4375C13.6861 8.125 13.9246 8.02623 14.1004 7.85041C14.2762 7.6746 14.375 7.43614 14.375 7.1875C14.375 6.93886 14.2762 6.7004 14.1004 6.52459C13.9246 6.34877 13.6861 6.25 13.4375 6.25H8.125V0.9375Z" fill="black"/>
</svg>
