<svg width="32" height="32" viewBox="0 0 32 32" fill="none" xmlns="http://www.w3.org/2000/svg">
<circle cx="16" cy="16" r="16" fill="black"/>
<path d="M16.3165 10.9703C16.3165 10.7801 16.2409 10.5976 16.1064 10.463C15.9719 10.3285 15.7894 10.2529 15.5991 10.2529C15.4089 10.2529 15.2264 10.3285 15.0918 10.463C14.9573 10.5976 14.8817 10.7801 14.8817 10.9703V15.0355H10.8165C10.6262 15.0355 10.4438 15.1111 10.3092 15.2457C10.1747 15.3802 10.0991 15.5627 10.0991 15.7529C10.0991 15.9432 10.1747 16.1257 10.3092 16.2602C10.4438 16.3947 10.6262 16.4703 10.8165 16.4703H14.8817V20.5355C14.8817 20.7258 14.9573 20.9083 15.0918 21.0428C15.2264 21.1773 15.4089 21.2529 15.5991 21.2529C15.7894 21.2529 15.9719 21.1773 16.1064 21.0428C16.2409 20.9083 16.3165 20.7258 16.3165 20.5355V16.4703H20.3817C20.572 16.4703 20.7545 16.3947 20.889 16.2602C21.0235 16.1257 21.0991 15.9432 21.0991 15.7529C21.0991 15.5627 21.0235 15.3802 20.889 15.2457C20.7545 15.1111 20.572 15.0355 20.3817 15.0355H16.3165V10.9703Z" fill="white"/>
</svg>
