<svg width="14" height="14" viewBox="0 0 14 14" fill="none" xmlns="http://www.w3.org/2000/svg">
<path d="M9.33268 1.16675H4.66602C2.73577 1.16675 1.16602 2.7365 1.16602 4.66675V12.2501C1.16602 12.4048 1.22747 12.5532 1.33687 12.6626C1.44627 12.772 1.59464 12.8334 1.74935 12.8334H9.33268C11.2629 12.8334 12.8327 11.2637 12.8327 9.33341V4.66675C12.8327 2.7365 11.2629 1.16675 9.33268 1.16675ZM11.666 9.33341C11.666 10.6202 10.6195 11.6667 9.33268 11.6667H2.33268V4.66675C2.33268 3.37991 3.37918 2.33341 4.66602 2.33341H9.33268C10.6195 2.33341 11.666 3.37991 11.666 4.66675V9.33341Z" fill="black"/>
<path d="M4.08398 8.74231V9.90839H5.25007L8.47532 6.68723L7.30982 5.52173L4.08398 8.74231Z" fill="black"/>
<path d="M9.0239 6.13775L7.8584 4.97109L8.74681 4.08325L9.91348 5.24934L9.0239 6.13775Z" fill="black"/>
</svg>
