<svg width="18" height="18" viewBox="0 0 18 18" fill="none" xmlns="http://www.w3.org/2000/svg">
<path d="M0 3.25C0 2.38805 0.34241 1.5614 0.951903 0.951903C1.5614 0.34241 2.38805 0 3.25 0H9.25C10.112 0 10.9386 0.34241 11.5481 0.951903C12.1576 1.5614 12.5 2.38805 12.5 3.25C12.5 3.44891 12.421 3.63968 12.2803 3.78033C12.1397 3.92098 11.9489 4 11.75 4C11.5511 4 11.3603 3.92098 11.2197 3.78033C11.079 3.63968 11 3.44891 11 3.25C11 2.78587 10.8156 2.34075 10.4874 2.01256C10.1592 1.68437 9.71413 1.5 9.25 1.5H3.25C2.78587 1.5 2.34075 1.68437 2.01256 2.01256C1.68437 2.34075 1.5 2.78587 1.5 3.25V9.25C1.5 10.216 2.284 11 3.25 11H9.104C9.28503 10.3611 9.69103 9.8093 10.2471 9.44634C10.8031 9.08338 11.4717 8.93379 12.1294 9.02518C12.7871 9.11656 13.3896 9.44275 13.8256 9.94356C14.2616 10.4444 14.5018 11.086 14.5018 11.75C14.5018 12.414 14.2616 13.0556 13.8256 13.5564C13.3896 14.0572 12.7871 14.3834 12.1294 14.4748C11.4717 14.5662 10.8031 14.4166 10.2471 14.0537C9.69103 13.6907 9.28503 13.1389 9.104 12.5H3.25C2.38805 12.5 1.5614 12.1576 0.951903 11.5481C0.34241 10.9386 0 10.112 0 9.25V3.25ZM14.75 7C15.716 7 16.5 7.784 16.5 8.75V14.75C16.5 15.2141 16.3156 15.6592 15.9874 15.9874C15.6592 16.3156 15.2141 16.5 14.75 16.5H8.75C8.28587 16.5 7.84075 16.3156 7.51256 15.9874C7.18437 15.6592 7 15.2141 7 14.75C7 14.5511 6.92098 14.3603 6.78033 14.2197C6.63968 14.079 6.44891 14 6.25 14C6.05109 14 5.86032 14.079 5.71967 14.2197C5.57902 14.3603 5.5 14.5511 5.5 14.75C5.5 15.612 5.84241 16.4386 6.4519 17.0481C7.0614 17.6576 7.88805 18 8.75 18H14.75C15.612 18 16.4386 17.6576 17.0481 17.0481C17.6576 16.4386 18 15.612 18 14.75V8.75C18 7.88805 17.6576 7.0614 17.0481 6.4519C16.4386 5.84241 15.612 5.5 14.75 5.5H8.896C8.71497 4.86113 8.30897 4.3093 7.75292 3.94634C7.19688 3.58338 6.52831 3.43379 5.87061 3.52518C5.2129 3.61656 4.61045 3.94275 4.17442 4.44356C3.73839 4.94436 3.49821 5.58598 3.49821 6.25C3.49821 6.91402 3.73839 7.55564 4.17442 8.05644C4.61045 8.55725 5.2129 8.88344 5.87061 8.97482C6.52831 9.06621 7.19688 8.91662 7.75292 8.55366C8.30897 8.1907 8.71497 7.63887 8.896 7H14.75Z" fill="black"/>
</svg>
