<svg width="20" height="20" viewBox="0 0 20 20" fill="none" xmlns="http://www.w3.org/2000/svg">
<path d="M14.1667 15.2083V17.9167H5.83334V15.2083C5.83334 14.0583 7.7 13.125 10 13.125C12.3 13.125 14.1667 14.0583 14.1667 15.2083ZM10 4.58333C11.4366 4.58333 12.8143 5.15402 13.8302 6.16984C14.846 7.18566 15.4167 8.56341 15.4167 10C15.4167 11.0417 15.125 12.0167 14.6167 12.8417L13.3333 11.7C13.6 11.1917 13.75 10.6083 13.75 10C13.75 7.91667 12.0833 6.25 10 6.25C7.91667 6.25 6.25 7.91667 6.25 10C6.25 10.6083 6.4 11.1917 6.66667 11.7L5.38334 12.8417C4.875 12.0167 4.58334 11.0417 4.58334 10C4.58334 8.56341 5.15402 7.18566 6.16984 6.16984C7.18566 5.15402 8.56342 4.58333 10 4.58333ZM10 1.25C12.3206 1.25 14.5462 2.17187 16.1872 3.81282C17.8281 5.45376 18.75 7.67936 18.75 10C18.75 11.9 18.1417 13.6583 17.1167 15.0917L15.8667 13.9667C16.6333 12.8333 17.0833 11.4667 17.0833 10C17.0833 8.12138 16.3371 6.31971 15.0087 4.99133C13.6803 3.66294 11.8786 2.91667 10 2.91667C8.12139 2.91667 6.31971 3.66294 4.99133 4.99133C3.66295 6.31971 2.91667 8.12138 2.91667 10C2.91667 11.4667 3.36667 12.8333 4.13334 13.9667L2.88334 15.0917C1.81956 13.6071 1.2483 11.8263 1.25 10C1.25 7.67936 2.17188 5.45376 3.81282 3.81282C5.45376 2.17187 7.67936 1.25 10 1.25ZM10 7.91667C10.5525 7.91667 11.0824 8.13616 11.4731 8.52686C11.8638 8.91756 12.0833 9.44747 12.0833 10C12.0833 10.5525 11.8638 11.0824 11.4731 11.4731C11.0824 11.8638 10.5525 12.0833 10 12.0833C9.44747 12.0833 8.91757 11.8638 8.52687 11.4731C8.13616 11.0824 7.91667 10.5525 7.91667 10C7.91667 9.44747 8.13616 8.91756 8.52687 8.52686C8.91757 8.13616 9.44747 7.91667 10 7.91667Z" fill="black"/>
</svg>
