<svg width="16" height="16" viewBox="0 0 16 16" fill="none" xmlns="http://www.w3.org/2000/svg">
<path d="M8 10C9.10457 10 10 9.10457 10 8C10 6.89543 9.10457 6 8 6C6.89543 6 6 6.89543 6 8C6 9.10457 6.89543 10 8 10Z" fill="black"/>
<path d="M15.47 7.83C14.882 6.30882 13.861 4.99331 12.5334 4.04604C11.2058 3.09878 9.62977 2.56129 8.00003 2.5C6.37029 2.56129 4.79423 3.09878 3.46663 4.04604C2.13904 4.99331 1.11811 6.30882 0.530031 7.83C0.490315 7.93985 0.490315 8.06015 0.530031 8.17C1.11811 9.69118 2.13904 11.0067 3.46663 11.954C4.79423 12.9012 6.37029 13.4387 8.00003 13.5C9.62977 13.4387 11.2058 12.9012 12.5334 11.954C13.861 11.0067 14.882 9.69118 15.47 8.17C15.5097 8.06015 15.5097 7.93985 15.47 7.83ZM8.00003 11.25C7.35724 11.25 6.72889 11.0594 6.19443 10.7023C5.65997 10.3452 5.24341 9.83758 4.99742 9.24372C4.75144 8.64986 4.68708 7.99639 4.81248 7.36596C4.93788 6.73552 5.24741 6.15642 5.70193 5.7019C6.15646 5.24738 6.73555 4.93785 7.36599 4.81245C7.99643 4.68705 8.64989 4.75141 9.24375 4.99739C9.83761 5.24338 10.3452 5.65994 10.7023 6.1944C11.0594 6.72886 11.25 7.35721 11.25 8C11.2487 8.86155 10.9059 9.68743 10.2967 10.2966C9.68746 10.9058 8.86158 11.2487 8.00003 11.25Z" fill="black"/>
</svg>
