<svg width="27" height="29" viewBox="0 0 27 29" fill="none" xmlns="http://www.w3.org/2000/svg">
<path fill-rule="evenodd" clip-rule="evenodd" d="M19.714 24.2143V12.5C19.714 11.4644 19.413 10.4712 18.8772 9.73889C18.3414 9.00661 17.6146 8.59521 16.8569 8.59521H3.99972C3.24196 8.59521 2.51523 9.00661 1.97942 9.73889C1.4436 10.4712 1.14258 11.4644 1.14258 12.5V24.2143C1.14258 25.2499 1.4436 26.2431 1.97942 26.9753C2.51523 27.7076 3.24196 28.119 3.99972 28.119H16.8569C17.6146 28.119 18.3414 27.7076 18.8772 26.9753C19.413 26.2431 19.714 25.2499 19.714 24.2143Z" stroke="white" stroke-width="1.42857" stroke-linecap="round" stroke-linejoin="round"/>
<path d="M22.5711 24.2138V10.5569C22.5711 9.00344 22.1196 7.51365 21.3158 6.41522C20.5121 5.3168 19.422 4.69971 18.2854 4.69971H18.2782L5.42822 4.73094" stroke="white" stroke-width="1.42857" stroke-linecap="round" stroke-linejoin="round"/>
<path d="M25.4285 20.309V8.60835C25.4285 6.53714 24.8265 4.55075 23.7548 3.08618C22.6832 1.62161 21.2297 0.798828 19.7142 0.798828H19.7042L8.28564 0.824209" stroke="white" stroke-width="1.42857" stroke-linecap="round" stroke-linejoin="round"/>
</svg>
