<svg width="20" height="20" viewBox="0 0 20 20" fill="none" xmlns="http://www.w3.org/2000/svg">
<path d="M19.4119 17.9413V7.94133C19.4119 7.58839 19.1766 7.3531 18.8237 7.3531H16.4707V5.58839C16.4707 5.3531 16.2943 5.1178 16.059 5.00016L4.8825 1.47074C4.58838 1.41192 4.23544 1.58839 4.11779 1.88251C4.00014 2.17663 4.17661 2.52957 4.52956 2.64721L15.2943 6.00016V7.3531H1.17661C0.823673 7.3531 0.588379 7.58839 0.588379 7.94133V17.9413C0.588379 18.2943 0.823673 18.5296 1.17661 18.5296H18.8237C19.1178 18.5296 19.4119 18.2943 19.4119 17.9413ZM18.2354 17.3531H1.76485V8.52957H18.2354V17.3531Z" fill="white"/>
<path d="M6.17627 16.2941C7.94098 16.2941 9.41156 14.8235 9.41156 12.9412C9.41156 11.1176 7.94098 9.58824 6.17627 9.58824C4.41156 9.58824 2.94098 11.1176 2.94098 12.9412C2.94098 14.7647 4.41156 16.2941 6.17627 16.2941ZM6.17627 10.8235C7.29392 10.8235 8.23509 11.7647 8.23509 13C8.23509 14.1765 7.29392 15.1765 6.17627 15.1765C5.05862 15.1765 4.11745 14.1176 4.11745 12.9412C4.11745 11.7647 5.05862 10.8235 6.17627 10.8235ZM11.1763 11.4706H16.4704C16.8233 11.4706 17.0586 11.2353 17.0586 10.8824C17.0586 10.5294 16.8233 10.2941 16.4704 10.2941H11.1763C10.8233 10.2941 10.588 10.5294 10.588 10.8824C10.588 11.2353 10.8233 11.4706 11.1763 11.4706ZM11.1763 13.8235H16.4704C16.8233 13.8235 17.0586 13.5882 17.0586 13.2353C17.0586 12.8824 16.8233 12.6471 16.4704 12.6471H11.1763C10.8233 12.6471 10.588 12.8824 10.588 13.2353C10.588 13.5882 10.8233 13.8235 11.1763 13.8235ZM16.4704 15H14.1174C13.7645 15 13.5292 15.2353 13.5292 15.5882C13.5292 15.9412 13.7645 16.1765 14.1174 16.1765H16.4704C16.8233 16.1765 17.0586 15.9412 17.0586 15.5882C17.0586 15.2353 16.7645 15 16.4704 15ZM1.17627 5.58824C1.17627 5.94118 1.41156 6.17647 1.7645 6.17647H5.29392C5.64686 6.17647 5.88215 5.94118 5.88215 5.58824C5.88215 5.23529 5.64686 5 5.29392 5H1.7645C1.41156 5 1.17627 5.23529 1.17627 5.58824Z" fill="white"/>
</svg>
