<svg width="12" height="20" viewBox="0 0 12 20" fill="none" xmlns="http://www.w3.org/2000/svg">
<path d="M2.41706 5.77406V3.12413C2.41706 1.42259 3.98104 0 5.97156 0C7.93365 0 9.52607 1.42259 9.52607 3.12413V5.77406H2.41706ZM12 5.94142V11.2692C10.8341 14.3933 7.39336 14.8675 7.39336 14.8675V18.41H11.1754V20H0.767772V18.41H4.5782V14.8675C4.5782 14.8675 1.16588 14.3933 0 11.2692V5.94142L1.39336 5.29986V10.1534C1.39336 10.1534 1.81991 13.417 5.97156 13.417C10.1232 13.417 10.6066 10.1534 10.6066 10.1534V5.29986L12 5.94142ZM9.52607 6.69456V9.09344C9.52607 10.795 7.93365 12.2176 5.97156 12.2176C3.98104 12.2176 2.41706 10.795 2.41706 9.09344V6.69456H9.52607Z" fill="#FF0000"/>
</svg>
