<svg width="17" height="17" viewBox="0 0 17 17" fill="none" xmlns="http://www.w3.org/2000/svg">
<path d="M5.31204 8.49973V4.24973C5.31204 3.83114 5.39449 3.41665 5.55468 3.02993C5.71486 2.6432 5.94965 2.29182 6.24564 1.99583C6.54163 1.69984 6.89301 1.46505 7.27974 1.30487C7.66646 1.14468 8.08095 1.06223 8.49954 1.06223C8.91813 1.06223 9.33262 1.14468 9.71935 1.30487C10.1061 1.46505 10.4575 1.69984 10.7534 1.99583C11.0494 2.29182 11.2842 2.6432 11.4444 3.02993C11.6046 3.41665 11.687 3.83114 11.687 4.24973V8.50026C11.687 9.34564 11.3511 10.1564 10.7533 10.7541C10.1554 11.3518 9.34465 11.6876 8.49928 11.6875C7.6539 11.6874 6.84317 11.3515 6.24545 10.7537C5.64773 10.1559 5.31197 9.34511 5.31204 8.49973ZM13.3099 8.50338C13.1701 8.48934 13.0303 8.53072 12.9207 8.61861C12.8111 8.7065 12.7403 8.8339 12.7236 8.97341C12.607 10.0122 12.1118 10.9715 11.3325 11.6682C10.5532 12.3649 9.54458 12.7499 8.4993 12.7499C7.45403 12.7498 6.44542 12.3646 5.66623 11.6678C4.88704 10.9711 4.3919 10.0116 4.27544 8.97288C4.25828 8.83362 4.18738 8.70659 4.07787 8.61888C3.96836 8.53117 3.82891 8.48972 3.68927 8.50338C3.54917 8.51894 3.42097 8.58948 3.33284 8.6995C3.24471 8.80952 3.20385 8.95003 3.21925 9.09015C3.35448 10.2957 3.90025 11.418 4.76496 12.2688C5.62968 13.1196 6.76072 13.6471 7.96829 13.7628V15.406C7.96829 15.5469 8.02426 15.682 8.12389 15.7816C8.22352 15.8813 8.35865 15.9372 8.49954 15.9372C8.64044 15.9372 8.77556 15.8813 8.87519 15.7816C8.97482 15.682 9.03079 15.5469 9.03079 15.406V13.7628C10.2386 13.6474 11.3698 13.12 12.2346 12.269C13.0994 11.418 13.6451 10.2954 13.7799 9.08962C13.7953 8.94956 13.7544 8.80912 13.6663 8.69919C13.5781 8.58926 13.4499 8.51883 13.3099 8.50338Z" fill="black"/>
</svg>
