<svg width="52" height="52" viewBox="0 0 52 52" fill="none" xmlns="http://www.w3.org/2000/svg">
<circle cx="26" cy="26" r="26" fill="#F2C94C"/>
<path d="M21.2227 20.2176V16.9052C21.2227 14.7782 23.3081 13 25.9621 13C28.5782 13 30.7014 14.7782 30.7014 16.9052V20.2176H21.2227ZM34 20.4268V27.0865C32.4455 30.9916 27.8578 31.5844 27.8578 31.5844V36.0126H32.9005V38H19.0237V36.0126H24.1043V31.5844C24.1043 31.5844 19.5545 30.9916 18 27.0865V20.4268L19.8578 19.6248V25.6918C19.8578 25.6918 20.4265 29.7713 25.9621 29.7713C31.4976 29.7713 32.1422 25.6918 32.1422 25.6918V19.6248L34 20.4268ZM30.7014 21.3682V24.3668C30.7014 26.4937 28.5782 28.272 25.9621 28.272C23.3081 28.272 21.2227 26.4937 21.2227 24.3668V21.3682H30.7014Z" fill="#FF0000"/>
</svg>
