<svg width="10" height="17" viewBox="0 0 10 17" fill="none" xmlns="http://www.w3.org/2000/svg">
<path d="M2.01422 4.90795V2.65551C2.01422 1.20921 3.31754 0 4.9763 0C6.61137 0 7.93839 1.20921 7.93839 2.65551V4.90795H2.01422ZM10 5.05021V9.5788C9.02844 12.2343 6.16114 12.6374 6.16114 12.6374V15.6485H9.3128V17H0.63981V15.6485H3.81517V12.6374C3.81517 12.6374 0.971564 12.2343 0 9.5788V5.05021L1.16114 4.50488V8.6304C1.16114 8.6304 1.51659 11.4045 4.9763 11.4045C8.43602 11.4045 8.83886 8.6304 8.83886 8.6304V4.50488L10 5.05021ZM7.93839 5.69038V7.72943C7.93839 9.17573 6.61137 10.3849 4.9763 10.3849C3.31754 10.3849 2.01422 9.17573 2.01422 7.72943V5.69038H7.93839Z" fill="black"/>
</svg>
