<svg width="46" height="46" viewBox="0 0 46 46" fill="none" xmlns="http://www.w3.org/2000/svg">
<path d="M5.75 25.875C5.75 29.2867 6.76169 32.6218 8.65715 35.4586C10.5526 38.2953 13.2467 40.5063 16.3987 41.8119C19.5507 43.1175 23.0191 43.4591 26.3653 42.7935C29.7115 42.128 32.7851 40.4851 35.1976 38.0726C37.6101 35.6601 39.253 32.5865 39.9185 29.2403C40.5841 25.8941 40.2425 22.4257 38.9369 19.2737C37.6313 16.1217 35.4203 13.4276 32.5836 11.5322C29.7468 9.6367 26.4117 8.625 23 8.625H17.25V1.4375L8.625 10.0625L17.25 18.6875V11.5H23C25.8431 11.5 28.6224 12.3431 30.9863 13.9226C33.3503 15.5022 35.1928 17.7472 36.2808 20.3739C37.3688 23.0006 37.6535 25.8909 37.0988 28.6794C36.5441 31.4679 35.175 34.0293 33.1647 36.0397C31.1543 38.05 28.5929 39.4191 25.8044 39.9738C23.0159 40.5285 20.1256 40.2438 17.4989 39.1558C14.8722 38.0678 12.6272 36.2253 11.0476 33.8613C9.46808 31.4974 8.625 28.7181 8.625 25.875H5.75Z" fill="black"/>
<path d="M28.2179 31.8125C27.5827 31.8281 26.9527 31.6952 26.3779 31.4244C25.8675 31.1654 25.4283 30.7854 25.0985 30.3175C24.737 29.7717 24.4833 29.1618 24.351 28.5207C24.1812 27.7271 24.0992 26.9172 24.1067 26.1057C24.1008 25.2942 24.1828 24.4845 24.351 23.6907C24.486 23.0503 24.7395 22.4409 25.0985 21.8938C25.4283 21.426 25.8675 21.046 26.3779 20.7869C26.9527 20.5161 27.5827 20.3832 28.2179 20.3988C28.8151 20.3533 29.4141 20.4616 29.9576 20.7132C30.5011 20.9649 30.9712 21.3515 31.3229 21.8363C32.0642 23.1112 32.4141 24.5759 32.3292 26.0482C32.4141 27.5204 32.0642 28.9852 31.3229 30.26C30.9846 30.766 30.5204 31.1752 29.9759 31.4474C29.4315 31.7196 28.8257 31.8454 28.2179 31.8125ZM28.2179 30.0588C28.5077 30.0761 28.7965 30.011 29.0509 29.8711C29.3053 29.7312 29.5148 29.5222 29.6554 29.2682C29.999 28.5958 30.1811 27.8526 30.1873 27.0975V25.1138C30.2184 24.3724 30.0756 23.6339 29.7704 22.9575C29.6097 22.7113 29.3902 22.5091 29.1317 22.3691C28.8731 22.2292 28.5838 22.1559 28.2898 22.1559C27.9958 22.1559 27.7064 22.2292 27.4479 22.3691C27.1894 22.5091 26.9699 22.7113 26.8092 22.9575C26.504 23.6339 26.3612 24.3724 26.3923 25.1138V27.0975C26.3626 27.8435 26.5053 28.5863 26.8092 29.2682C26.9463 29.5187 27.1511 29.7257 27.4001 29.8655C27.6492 30.0053 27.9326 30.0723 28.2179 30.0588Z" fill="black"/>
<path d="M15.2808 31.6246V29.9283H18.1558V22.4677L15.482 23.9052L14.6914 22.3814L18.0264 20.5127H20.1252V29.8564H22.6839V31.6246H15.2808Z" fill="black"/>
</svg>
