<svg width="105" height="25" viewBox="0 0 105 25" fill="none" xmlns="http://www.w3.org/2000/svg">
<rect x="0.946655" width="103.599" height="25" rx="2" fill="#F2F2F2"/>
<rect x="74.3715" width="30.1746" height="25" rx="2" fill="#F2C94C"/>
<path d="M12.9972 14.1006C12.9972 14.7288 12.7693 15.2188 12.3136 15.5703C11.8579 15.9219 11.2394 16.0977 10.4581 16.0977C9.61178 16.0977 8.96073 15.9886 8.505 15.7705V14.9697C8.79797 15.0934 9.11698 15.1911 9.46204 15.2627C9.80709 15.3343 10.1489 15.3701 10.4874 15.3701C11.0408 15.3701 11.4575 15.266 11.7374 15.0576C12.0174 14.846 12.1573 14.5531 12.1573 14.1787C12.1573 13.9313 12.1069 13.7295 12.006 13.5732C11.9083 13.4137 11.7423 13.2673 11.5079 13.1338C11.2768 13.0003 10.9236 12.849 10.4484 12.6797C9.7843 12.4421 9.30904 12.1605 9.02258 11.835C8.73938 11.5094 8.59778 11.0846 8.59778 10.5605C8.59778 10.0104 8.80448 9.57259 9.2179 9.24707C9.63131 8.92155 10.1782 8.75879 10.8585 8.75879C11.5682 8.75879 12.2208 8.889 12.8165 9.14941L12.5577 9.87207C11.9685 9.62467 11.3956 9.50098 10.839 9.50098C10.3995 9.50098 10.0561 9.59538 9.80872 9.78418C9.56132 9.97298 9.43762 10.235 9.43762 10.5703C9.43762 10.8177 9.48319 11.0212 9.57434 11.1807C9.66549 11.3369 9.81848 11.4818 10.0333 11.6152C10.2514 11.7454 10.5835 11.8903 11.0294 12.0498C11.7781 12.3167 12.2924 12.6032 12.5724 12.9092C12.8556 13.2152 12.9972 13.6123 12.9972 14.1006ZM16.5958 16.0977C15.8048 16.0977 15.1798 15.8568 14.7208 15.375C14.2651 14.8932 14.0372 14.2243 14.0372 13.3682C14.0372 12.5055 14.2488 11.8203 14.672 11.3125C15.0984 10.8047 15.6697 10.5508 16.3859 10.5508C17.0564 10.5508 17.587 10.7721 17.9777 11.2148C18.3683 11.6543 18.5636 12.2354 18.5636 12.958V13.4707H14.8771C14.8934 14.099 15.0512 14.5758 15.3507 14.9014C15.6534 15.2269 16.0782 15.3896 16.6251 15.3896C17.2013 15.3896 17.771 15.2692 18.3341 15.0283V15.751C18.0476 15.8747 17.7758 15.9626 17.5187 16.0146C17.2648 16.07 16.9572 16.0977 16.5958 16.0977ZM16.3761 11.2295C15.9464 11.2295 15.603 11.3695 15.3458 11.6494C15.0919 11.9294 14.9422 12.3167 14.8966 12.8115H17.6945C17.6945 12.3005 17.5805 11.9098 17.3527 11.6396C17.1248 11.3662 16.7993 11.2295 16.3761 11.2295ZM20.7609 16H19.9503V8.40234H20.7609V16ZM24.7404 16.0977C23.9493 16.0977 23.3243 15.8568 22.8654 15.375C22.4096 14.8932 22.1818 14.2243 22.1818 13.3682C22.1818 12.5055 22.3934 11.8203 22.8165 11.3125C23.243 10.8047 23.8142 10.5508 24.5304 10.5508C25.201 10.5508 25.7316 10.7721 26.1222 11.2148C26.5128 11.6543 26.7081 12.2354 26.7081 12.958V13.4707H23.0216C23.0379 14.099 23.1958 14.5758 23.4952 14.9014C23.798 15.2269 24.2228 15.3896 24.7697 15.3896C25.3458 15.3896 25.9155 15.2692 26.4786 15.0283V15.751C26.1922 15.8747 25.9204 15.9626 25.6632 16.0146C25.4093 16.07 25.1017 16.0977 24.7404 16.0977ZM24.5206 11.2295C24.0909 11.2295 23.7475 11.3695 23.4904 11.6494C23.2365 11.9294 23.0867 12.3167 23.0411 12.8115H25.839C25.839 12.3005 25.7251 11.9098 25.4972 11.6396C25.2693 11.3662 24.9438 11.2295 24.5206 11.2295ZM30.2335 16.0977C29.4588 16.0977 28.8582 15.86 28.4318 15.3848C28.0086 14.9062 27.797 14.2308 27.797 13.3584C27.797 12.4632 28.0118 11.7715 28.4415 11.2832C28.8745 10.7949 29.4897 10.5508 30.2872 10.5508C30.5444 10.5508 30.8016 10.5785 31.0587 10.6338C31.3159 10.6891 31.5177 10.7542 31.6642 10.8291L31.4152 11.5176C31.2361 11.446 31.0408 11.3874 30.8292 11.3418C30.6176 11.293 30.4305 11.2686 30.2677 11.2686C29.1805 11.2686 28.6368 11.9619 28.6368 13.3486C28.6368 14.0062 28.7687 14.5107 29.0323 14.8623C29.2993 15.2139 29.6932 15.3896 30.214 15.3896C30.66 15.3896 31.1173 15.2936 31.5861 15.1016V15.8193C31.228 16.0049 30.7771 16.0977 30.2335 16.0977ZM34.589 15.4287C34.7322 15.4287 34.8706 15.4189 35.004 15.3994C35.1375 15.3766 35.2433 15.3538 35.3214 15.3311V15.9512C35.2335 15.9935 35.1033 16.0277 34.9308 16.0537C34.7615 16.083 34.6085 16.0977 34.4718 16.0977C33.4366 16.0977 32.9191 15.5524 32.9191 14.4619V11.2783H32.1525V10.8877L32.9191 10.5508L33.2609 9.4082H33.7296V10.6484H35.2823V11.2783H33.7296V14.4277C33.7296 14.75 33.8061 14.9974 33.9591 15.1699C34.1121 15.3424 34.3221 15.4287 34.589 15.4287ZM43.6027 16L42.714 13.7295H39.8527L38.9738 16H38.1339L40.9562 8.83203H41.6544L44.462 16H43.6027ZM42.4552 12.9824L41.6251 10.7705C41.5177 10.4906 41.407 10.1471 41.2931 9.74023C41.2215 10.0527 41.1189 10.3962 40.9855 10.7705L40.1456 12.9824H42.4552ZM47.4601 16.0977C46.6853 16.0977 46.0848 15.86 45.6583 15.3848C45.2351 14.9062 45.0236 14.2308 45.0236 13.3584C45.0236 12.4632 45.2384 11.7715 45.6681 11.2832C46.101 10.7949 46.7163 10.5508 47.5138 10.5508C47.771 10.5508 48.0281 10.5785 48.2853 10.6338C48.5424 10.6891 48.7443 10.7542 48.8907 10.8291L48.6417 11.5176C48.4627 11.446 48.2674 11.3874 48.0558 11.3418C47.8442 11.293 47.657 11.2686 47.4943 11.2686C46.407 11.2686 45.8634 11.9619 45.8634 13.3486C45.8634 14.0062 45.9952 14.5107 46.2589 14.8623C46.5258 15.2139 46.9197 15.3896 47.4406 15.3896C47.8865 15.3896 48.3439 15.2936 48.8126 15.1016V15.8193C48.4545 16.0049 48.0037 16.0977 47.4601 16.0977ZM51.8156 15.4287C51.9588 15.4287 52.0971 15.4189 52.2306 15.3994C52.3641 15.3766 52.4698 15.3538 52.548 15.3311V15.9512C52.4601 15.9935 52.3299 16.0277 52.1573 16.0537C51.9881 16.083 51.8351 16.0977 51.6984 16.0977C50.6632 16.0977 50.1456 15.5524 50.1456 14.4619V11.2783H49.379V10.8877L50.1456 10.5508L50.4874 9.4082H50.9562V10.6484H52.5089V11.2783H50.9562V14.4277C50.9562 14.75 51.0327 14.9974 51.1857 15.1699C51.3387 15.3424 51.5486 15.4287 51.8156 15.4287ZM54.4327 16H53.6222V10.6484H54.4327V16ZM53.5538 9.19824C53.5538 9.0127 53.5994 8.8776 53.6906 8.79297C53.7817 8.70508 53.8956 8.66113 54.0323 8.66113C54.1626 8.66113 54.2749 8.70508 54.3693 8.79297C54.4637 8.88086 54.5109 9.01595 54.5109 9.19824C54.5109 9.38053 54.4637 9.51725 54.3693 9.6084C54.2749 9.69629 54.1626 9.74023 54.0323 9.74023C53.8956 9.74023 53.7817 9.69629 53.6906 9.6084C53.5994 9.51725 53.5538 9.38053 53.5538 9.19824ZM60.7706 13.3193C60.7706 14.1917 60.5509 14.8737 60.1115 15.3652C59.672 15.8535 59.0649 16.0977 58.2902 16.0977C57.8116 16.0977 57.3868 15.9854 57.0157 15.7607C56.6447 15.5361 56.3582 15.2139 56.1564 14.7939C55.9545 14.374 55.8536 13.8825 55.8536 13.3193C55.8536 12.4469 56.0717 11.7682 56.5079 11.2832C56.9441 10.7949 57.5496 10.5508 58.3243 10.5508C59.073 10.5508 59.6671 10.7998 60.1066 11.2979C60.5493 11.7959 60.7706 12.4697 60.7706 13.3193ZM56.6935 13.3193C56.6935 14.0029 56.8302 14.5238 57.1036 14.8818C57.3771 15.2399 57.7791 15.4189 58.3097 15.4189C58.8403 15.4189 59.2423 15.2415 59.5157 14.8867C59.7924 14.5286 59.9308 14.0062 59.9308 13.3193C59.9308 12.639 59.7924 12.123 59.5157 11.7715C59.2423 11.4167 58.837 11.2393 58.2999 11.2393C57.7693 11.2393 57.3689 11.4134 57.0988 11.7617C56.8286 12.11 56.6935 12.6292 56.6935 13.3193ZM65.8585 16V12.5381C65.8585 12.1019 65.7592 11.7764 65.5607 11.5615C65.3621 11.3467 65.0512 11.2393 64.6281 11.2393C64.0682 11.2393 63.658 11.3906 63.3976 11.6934C63.1372 11.9961 63.007 12.4958 63.007 13.1924V16H62.1964V10.6484H62.8556L62.9874 11.3809H63.0265C63.1925 11.1172 63.4253 10.9137 63.7247 10.7705C64.0242 10.624 64.3579 10.5508 64.7257 10.5508C65.3702 10.5508 65.8553 10.707 66.1808 11.0195C66.5063 11.3288 66.6691 11.8252 66.6691 12.5088V16H65.8585Z" fill="#273543"/>
<path d="M88.6459 15.3384C88.6805 15.3883 88.7268 15.4292 88.7808 15.4574C88.8348 15.4856 88.8949 15.5004 88.956 15.5004C89.017 15.5004 89.0771 15.4856 89.1311 15.4574C89.1851 15.4292 89.2314 15.3883 89.266 15.3384L92.6606 10.4634C92.6999 10.4071 92.723 10.3413 92.7273 10.273C92.7316 10.2046 92.7169 10.1364 92.685 10.0758C92.653 10.0151 92.6049 9.96434 92.546 9.92895C92.487 9.89355 92.4195 9.87489 92.3506 9.875H85.5613C85.4926 9.87528 85.4253 9.89418 85.3666 9.92966C85.3079 9.96514 85.26 10.0159 85.2281 10.0764C85.1962 10.1369 85.1815 10.2049 85.1856 10.2731C85.1897 10.3413 85.2124 10.4071 85.2513 10.4634L88.6459 15.3384Z" fill="#273543"/>
</svg>
