
<svg height='20px' width='20px'  fill="#000000" xmlns="http://www.w3.org/2000/svg" xmlns:xlink="http://www.w3.org/1999/xlink" version="1.1" baseProfile="basic" x="0px" y="0px" viewBox="0 0 90 90" xml:space="preserve"><g><path d="M50.542,4v0.136c0,3.69,2.307,6.966,5.741,8.153c1.313,0.454,2.614,0.994,3.867,1.606c1.142,0.558,2.42,0.853,3.696,0.853   c2.267,0,4.494-0.926,6.108-2.54l0.119-0.119l7.838,7.838l-0.119,0.119c-2.603,2.603-3.281,6.543-1.687,9.804   c0.612,1.253,1.153,2.554,1.606,3.867c1.186,3.434,4.463,5.741,8.153,5.741H86v11.084h-0.136c-3.69,0-6.966,2.307-8.153,5.741   c-0.454,1.313-0.994,2.614-1.606,3.867c-1.594,3.261-0.916,7.201,1.687,9.804l0.119,0.119l-7.838,7.838l-0.119-0.119   c-1.614-1.614-3.841-2.54-6.108-2.54c-1.276,0-2.554,0.295-3.696,0.853c-1.253,0.612-2.554,1.153-3.867,1.606   c-3.434,1.186-5.741,4.463-5.741,8.153V86H39.458v-0.136c0-3.69-2.307-6.966-5.741-8.153c-1.313-0.453-2.613-0.994-3.866-1.606   c-1.142-0.558-2.42-0.853-3.696-0.853c-2.267,0-4.494,0.926-6.108,2.54l-0.119,0.119l-7.838-7.838l0.119-0.119   c2.603-2.603,3.281-6.543,1.687-9.804c-0.612-1.253-1.153-2.554-1.606-3.866c-1.186-3.434-4.463-5.741-8.153-5.741H4V39.458h0.136   c3.69,0,6.966-2.307,8.153-5.741c0.454-1.313,0.994-2.614,1.606-3.867c1.594-3.261,0.916-7.201-1.687-9.804l-0.119-0.119   l7.838-7.838l0.119,0.119c1.614,1.614,3.841,2.54,6.108,2.54c1.276,0,2.554-0.295,3.696-0.853c1.253-0.612,2.554-1.153,3.867-1.606   c3.434-1.186,5.741-4.463,5.741-8.153V4H50.542 M21.453,10.565h0.005H21.453 M71.597,10.565h0.005H71.597 M52.699,0H37.301   c-1.018,0-1.843,0.825-1.843,1.843v2.293c0,1.952-1.203,3.735-3.047,4.372c-1.482,0.512-2.923,1.112-4.317,1.794   c-0.618,0.302-1.28,0.447-1.939,0.447c-1.202,0-2.393-0.482-3.28-1.369l-1.644-1.644c-0.36-0.36-0.832-0.54-1.303-0.54   s-0.943,0.18-1.303,0.54L7.736,18.624c-0.72,0.72-0.72,1.887,0,2.607l1.644,1.644c1.373,1.373,1.775,3.474,0.922,5.219   C9.62,29.487,9.02,30.928,8.508,32.41c-0.637,1.845-2.42,3.047-4.372,3.047H1.843C0.825,35.458,0,36.283,0,37.301v15.398   c0,1.018,0.825,1.843,1.843,1.843h2.293c1.952,0,3.735,1.203,4.372,3.047c0.512,1.482,1.112,2.923,1.794,4.317   c0.853,1.745,0.451,3.846-0.922,5.219l-1.644,1.644c-0.72,0.72-0.72,1.887,0,2.607l10.888,10.888c0.36,0.36,0.832,0.54,1.303,0.54   s0.943-0.18,1.303-0.54l1.644-1.644c0.887-0.887,2.078-1.369,3.28-1.369c0.659,0,1.321,0.145,1.939,0.447   c1.394,0.681,2.835,1.282,4.317,1.794c1.845,0.637,3.047,2.42,3.047,4.372v2.293c0,1.018,0.825,1.843,1.843,1.843h15.398   c1.018,0,1.843-0.825,1.843-1.843v-2.293c0-1.952,1.203-3.735,3.047-4.372c1.482-0.512,2.923-1.112,4.317-1.794   c0.618-0.302,1.28-0.447,1.939-0.447c1.202,0,2.392,0.481,3.28,1.369l1.644,1.644c0.36,0.36,0.832,0.54,1.303,0.54   c0.472,0,0.943-0.18,1.303-0.54l10.888-10.888c0.72-0.72,0.72-1.887,0-2.607l-1.644-1.644c-1.373-1.373-1.775-3.474-0.922-5.219   c0.681-1.394,1.282-2.835,1.794-4.317c0.637-1.845,2.42-3.047,4.372-3.047h2.293c1.018,0,1.843-0.825,1.843-1.843V37.301   c0-1.018-0.825-1.843-1.843-1.843h-2.293c-1.952,0-3.735-1.203-4.372-3.047c-0.512-1.482-1.112-2.923-1.794-4.317   c-0.853-1.745-0.451-3.846,0.922-5.219l1.644-1.644c0.72-0.72,0.72-1.887,0-2.607L71.376,7.736c-0.36-0.36-0.832-0.54-1.303-0.54   c-0.472,0-0.944,0.18-1.304,0.54L67.125,9.38c-0.887,0.887-2.078,1.369-3.28,1.369c-0.659,0-1.321-0.145-1.939-0.447   C60.513,9.62,59.072,9.02,57.59,8.508c-1.845-0.637-3.047-2.42-3.047-4.372V1.843C54.542,0.825,53.717,0,52.699,0L52.699,0z"></path><path d="M45,25.249c5.49,0,10.778,2.314,14.508,6.349c3.781,4.09,5.62,9.422,5.179,15.014c-0.753,9.551-8.523,17.321-18.074,18.075   c-0.537,0.042-1.08,0.064-1.613,0.064c-5.491,0-10.779-2.314-14.509-6.349c-3.78-4.09-5.619-9.423-5.179-15.015   c0.753-9.551,8.523-17.321,18.074-18.074C43.924,25.27,44.466,25.249,45,25.249L45,25.249 M45,21.249   c-0.637,0-1.28,0.025-1.927,0.076C31.56,22.233,22.233,31.56,21.325,43.073C20.222,57.06,31.246,68.751,45,68.751   c0.637,0,1.28-0.025,1.928-0.076c11.513-0.908,20.84-10.235,21.747-21.748C69.778,32.94,58.754,21.249,45,21.249L45,21.249z"></path></g></svg>