<svg width="14" height="14" viewBox="0 0 14 14" fill="none" xmlns="http://www.w3.org/2000/svg">
<path d="M1.75 7C1.75 7.96483 2.53517 8.75 3.5 8.75C3.96317 8.75 4.382 8.56625 4.69525 8.27167L8.19 10.269C8.1795 10.3448 8.16667 10.4207 8.16667 10.5C8.16667 11.4648 8.95183 12.25 9.91667 12.25C10.8815 12.25 11.6667 11.4648 11.6667 10.5C11.6667 9.53517 10.8815 8.75 9.91667 8.75C9.4535 8.75 9.03467 8.93375 8.72142 9.22833L5.22667 7.23158C5.23717 7.15517 5.25 7.07933 5.25 7C5.25 6.92067 5.23717 6.84483 5.22667 6.76842L8.72142 4.77167C9.03467 5.06625 9.4535 5.25 9.91667 5.25C10.8815 5.25 11.6667 4.46483 11.6667 3.5C11.6667 2.53517 10.8815 1.75 9.91667 1.75C8.95183 1.75 8.16667 2.53517 8.16667 3.5C8.16667 3.57933 8.1795 3.65517 8.19 3.73158L4.69525 5.72833C4.37267 5.4219 3.94493 5.25072 3.5 5.25C2.53517 5.25 1.75 6.03517 1.75 7Z" fill="#F2F2F2"/>
</svg>
