<svg width="32" height="33" viewBox="0 0 32 33" fill="none" xmlns="http://www.w3.org/2000/svg">
<path fill-rule="evenodd" clip-rule="evenodd" d="M17 4.125C17.2652 4.125 17.5196 4.23365 17.7071 4.42705C17.8946 4.62044 18 4.88275 18 5.15625V27.8438C18 28.1173 17.8946 28.3796 17.7071 28.573C17.5196 28.7664 17.2652 28.875 17 28.875C16.7348 28.875 16.4804 28.7664 16.2929 28.573C16.1054 28.3796 16 28.1173 16 27.8438V5.15625C16 4.88275 16.1054 4.62044 16.2929 4.42705C16.4804 4.23365 16.7348 4.125 17 4.125ZM13 8.25C13.2652 8.25 13.5196 8.35865 13.7071 8.55205C13.8946 8.74544 14 9.00775 14 9.28125V23.7188C14 23.9923 13.8946 24.2546 13.7071 24.448C13.5196 24.6414 13.2652 24.75 13 24.75C12.7348 24.75 12.4804 24.6414 12.2929 24.448C12.1054 24.2546 12 23.9923 12 23.7188V9.28125C12 9.00775 12.1054 8.74544 12.2929 8.55205C12.4804 8.35865 12.7348 8.25 13 8.25ZM21 8.25C21.2652 8.25 21.5196 8.35865 21.7071 8.55205C21.8946 8.74544 22 9.00775 22 9.28125V23.7188C22 23.9923 21.8946 24.2546 21.7071 24.448C21.5196 24.6414 21.2652 24.75 21 24.75C20.7348 24.75 20.4804 24.6414 20.2929 24.448C20.1054 24.2546 20 23.9923 20 23.7188V9.28125C20 9.00775 20.1054 8.74544 20.2929 8.55205C20.4804 8.35865 20.7348 8.25 21 8.25ZM9 11.3438C9.26522 11.3438 9.51957 11.4524 9.70711 11.6458C9.89464 11.8392 10 12.1015 10 12.375V20.625C10 20.8985 9.89464 21.1608 9.70711 21.3542C9.51957 21.5476 9.26522 21.6562 9 21.6562C8.73478 21.6562 8.48043 21.5476 8.29289 21.3542C8.10536 21.1608 8 20.8985 8 20.625V12.375C8 12.1015 8.10536 11.8392 8.29289 11.6458C8.48043 11.4524 8.73478 11.3438 9 11.3438ZM25 11.3438C25.2652 11.3438 25.5196 11.4524 25.7071 11.6458C25.8946 11.8392 26 12.1015 26 12.375V20.625C26 20.8985 25.8946 21.1608 25.7071 21.3542C25.5196 21.5476 25.2652 21.6562 25 21.6562C24.7348 21.6562 24.4804 21.5476 24.2929 21.3542C24.1054 21.1608 24 20.8985 24 20.625V12.375C24 12.1015 24.1054 11.8392 24.2929 11.6458C24.4804 11.4524 24.7348 11.3438 25 11.3438ZM5 13.4062C5.26522 13.4062 5.51957 13.5149 5.70711 13.7083C5.89464 13.9017 6 14.164 6 14.4375V18.5625C6 18.836 5.89464 19.0983 5.70711 19.2917C5.51957 19.4851 5.26522 19.5938 5 19.5938C4.73478 19.5938 4.48043 19.4851 4.29289 19.2917C4.10536 19.0983 4 18.836 4 18.5625V14.4375C4 14.164 4.10536 13.9017 4.29289 13.7083C4.48043 13.5149 4.73478 13.4062 5 13.4062ZM29 13.4062C29.2652 13.4062 29.5196 13.5149 29.7071 13.7083C29.8946 13.9017 30 14.164 30 14.4375V18.5625C30 18.836 29.8946 19.0983 29.7071 19.2917C29.5196 19.4851 29.2652 19.5938 29 19.5938C28.7348 19.5938 28.4804 19.4851 28.2929 19.2917C28.1054 19.0983 28 18.836 28 18.5625V14.4375C28 14.164 28.1054 13.9017 28.2929 13.7083C28.4804 13.5149 28.7348 13.4062 29 13.4062Z" fill="black"/>
</svg>
