<svg width="1206" height="222" viewBox="0 0 1206 222" fill="none" xmlns="http://www.w3.org/2000/svg">
<path d="M52.009 81.7881V145.444" stroke="black" stroke-width="3" stroke-linecap="round" stroke-linejoin="round"/>
<path d="M28.7904 67.4004L27.0044 157.216" stroke="black" stroke-width="3" stroke-linecap="round" stroke-linejoin="round"/>
<path d="M202.036 52.5762V171.168" stroke="black" stroke-width="3" stroke-linecap="round" stroke-linejoin="round"/>
<path d="M289.551 56.9355V167.68" stroke="black" stroke-width="3" stroke-linecap="round" stroke-linejoin="round"/>
<path d="M252.045 71.7598L252.045 151.984" stroke="black" stroke-width="3" stroke-linecap="round" stroke-linejoin="round"/>
<path d="M239.542 75.6836L239.542 146.316" stroke="black" stroke-width="3" stroke-linecap="round" stroke-linejoin="round"/>
<path d="M266.333 85.7119V138.032" stroke="black" stroke-width="3" stroke-linecap="round" stroke-linejoin="round"/>
<path d="M277.049 90.9443V133.236" stroke="black" stroke-width="3" stroke-linecap="round" stroke-linejoin="round"/>
<path d="M327.058 84.8398V139.776" stroke="black" stroke-width="3" stroke-linecap="round" stroke-linejoin="round"/>
<path d="M402.071 84.8398V139.776" stroke="black" stroke-width="3" stroke-linecap="round" stroke-linejoin="round"/>
<path d="M416.359 93.9961V129.748" stroke="black" stroke-width="3" stroke-linecap="round" stroke-linejoin="round"/>
<path d="M439.578 106.64V117.104" stroke="black" stroke-width="3" stroke-linecap="round" stroke-linejoin="round"/>
<path d="M452.08 107.948V116.232" stroke="black" stroke-width="3" stroke-linecap="round" stroke-linejoin="round"/>
<path d="M389.569 108.82V115.36" stroke="black" stroke-width="3" stroke-linecap="round" stroke-linejoin="round"/>
<path d="M352.062 104.896V118.848" stroke="black" stroke-width="3" stroke-linecap="round" stroke-linejoin="round"/>
<path d="M339.56 104.896V118.848" stroke="black" stroke-width="3" stroke-linecap="round" stroke-linejoin="round"/>
<path d="M316.342 104.896V118.848" stroke="black" stroke-width="3" stroke-linecap="round" stroke-linejoin="round"/>
<path d="M491.373 107.948V116.232" stroke="black" stroke-width="3" stroke-linecap="round" stroke-linejoin="round"/>
<path d="M428.862 67.8359V155.472" stroke="black" stroke-width="3" stroke-linecap="round" stroke-linejoin="round"/>
<path d="M503.875 93.5596V130.184" stroke="black" stroke-width="3" stroke-linecap="round" stroke-linejoin="round"/>
<path d="M514.592 97.4844V126.26" stroke="black" stroke-width="3" stroke-linecap="round" stroke-linejoin="round"/>
<path d="M641.4 104.024V119.72" stroke="black" stroke-width="3" stroke-linecap="round" stroke-linejoin="round"/>
<path d="M628.897 107.512V116.232" stroke="black" stroke-width="3" stroke-linecap="round" stroke-linejoin="round"/>
<path d="M714.627 110.564V112.744" stroke="black" stroke-width="3" stroke-linecap="round" stroke-linejoin="round"/>
<path d="M802.143 110.564V112.744" stroke="black" stroke-width="3" stroke-linecap="round" stroke-linejoin="round"/>
<path d="M528.88 110.564V112.744" stroke="black" stroke-width="3" stroke-linecap="round" stroke-linejoin="round"/>
<path d="M464.583 110.564V112.744" stroke="black" stroke-width="3" stroke-linecap="round" stroke-linejoin="round"/>
<path d="M377.067 110.564V112.744" stroke="black" stroke-width="3" stroke-linecap="round" stroke-linejoin="round"/>
<path d="M127.022 111.872L127.022 112.744" stroke="black" stroke-width="3" stroke-linecap="round" stroke-linejoin="round"/>
<path d="M616.395 107.512V116.232" stroke="black" stroke-width="3" stroke-linecap="round" stroke-linejoin="round"/>
<path d="M677.12 109.256V114.488" stroke="black" stroke-width="3" stroke-linecap="round" stroke-linejoin="round"/>
<path d="M603.893 84.8398V139.776" stroke="black" stroke-width="3" stroke-linecap="round" stroke-linejoin="round"/>
<path d="M728.915 87.4561V136.288" stroke="black" stroke-width="3" stroke-linecap="round" stroke-linejoin="round"/>
<path d="M753.92 107.076V117.54" stroke="black" stroke-width="3" stroke-linecap="round" stroke-linejoin="round"/>
<path d="M778.924 104.024V119.284" stroke="black" stroke-width="3" stroke-linecap="round" stroke-linejoin="round"/>
<path d="M791.426 104.896V117.976" stroke="black" stroke-width="3" stroke-linecap="round" stroke-linejoin="round"/>
<path d="M766.422 70.4521V152.856" stroke="black" stroke-width="3" stroke-linecap="round" stroke-linejoin="round"/>
<path d="M953.956 65.6562V156.344" stroke="black" stroke-width="3" stroke-linecap="round" stroke-linejoin="round"/>
<path d="M964.671 71.3242V153.292" stroke="black" stroke-width="3" stroke-linecap="round" stroke-linejoin="round"/>
<path d="M978.96 97.0479V125.824" stroke="black" stroke-width="3" stroke-linecap="round" stroke-linejoin="round"/>
<path d="M991.462 103.152V120.156" stroke="black" stroke-width="3" stroke-linecap="round" stroke-linejoin="round"/>
<path d="M1066.48 106.204V118.412" stroke="black" stroke-width="3" stroke-linecap="round" stroke-linejoin="round"/>
<path d="M1091.48 93.9961V130.62" stroke="black" stroke-width="3" stroke-linecap="round" stroke-linejoin="round"/>
<path d="M1114.7 97.4844V125.824" stroke="black" stroke-width="3" stroke-linecap="round" stroke-linejoin="round"/>
<path d="M1180.78 97.4844V125.824" stroke="black" stroke-width="3" stroke-linecap="round" stroke-linejoin="round"/>
<path d="M1204 102.716V118.848" stroke="black" stroke-width="3" stroke-linecap="round" stroke-linejoin="round"/>
<path d="M1127.2 107.076V117.104" stroke="black" stroke-width="3" stroke-linecap="round" stroke-linejoin="round"/>
<path d="M1139.7 110.128V113.18" stroke="black" stroke-width="3" stroke-linecap="round" stroke-linejoin="round"/>
<path d="M1102.2 111V112.308" stroke="black" stroke-width="3" stroke-linecap="round" stroke-linejoin="round"/>
<path d="M839.649 95.7402V129.312" stroke="black" stroke-width="3" stroke-linecap="round" stroke-linejoin="round"/>
<path d="M852.152 100.1V124.08" stroke="black" stroke-width="3" stroke-linecap="round" stroke-linejoin="round"/>
<path d="M916.449 97.0479V125.824" stroke="black" stroke-width="3" stroke-linecap="round" stroke-linejoin="round"/>
<path d="M941.453 102.716V120.156" stroke="black" stroke-width="3" stroke-linecap="round" stroke-linejoin="round"/>
<path d="M928.951 82.2236V141.52" stroke="black" stroke-width="3" stroke-linecap="round" stroke-linejoin="round"/>
<path d="M903.947 88.3281V134.98" stroke="black" stroke-width="3" stroke-linecap="round" stroke-linejoin="round"/>
<path d="M1002.18 65.6562V158.96" stroke="black" stroke-width="3" stroke-linecap="round" stroke-linejoin="round"/>
<path d="M1014.68 41.6758V185.992" stroke="black" stroke-width="3" stroke-linecap="round" stroke-linejoin="round"/>
<path d="M1027.18 62.6035V162.012" stroke="black" stroke-width="3" stroke-linecap="round" stroke-linejoin="round"/>
<path d="M1078.98 53.4482V169.424" stroke="black" stroke-width="3" stroke-linecap="round" stroke-linejoin="round"/>
<path d="M866.44 46.0361V178.58" stroke="black" stroke-width="3" stroke-linecap="round" stroke-linejoin="round"/>
<path d="M878.942 39.4961V189.916" stroke="black" stroke-width="3" stroke-linecap="round" stroke-linejoin="round"/>
<path d="M891.444 2V220" stroke="black" stroke-width="3" stroke-linecap="round" stroke-linejoin="round"/>
<path d="M1168.28 18.1318V206.484M1041.47 85.7118V136.724" stroke="black" stroke-width="3" stroke-linecap="round" stroke-linejoin="round"/>
<path d="M303.84 76.9922V146.316" stroke="black" stroke-width="3" stroke-linecap="round" stroke-linejoin="round"/>
<path d="M214.538 96.1758L214.538 127.568" stroke="black" stroke-width="3" stroke-linecap="round" stroke-linejoin="round"/>
<path d="M228.826 104.46V121.028" stroke="black" stroke-width="3" stroke-linecap="round" stroke-linejoin="round"/>
<path d="M189.533 103.152V121.9" stroke="black" stroke-width="3" stroke-linecap="round" stroke-linejoin="round"/>
<path d="M64.511 96.1758V125.824" stroke="black" stroke-width="3" stroke-linecap="round" stroke-linejoin="round"/>
<path d="M39.5068 103.152L39.5068 119.284" stroke="black" stroke-width="3" stroke-linecap="round" stroke-linejoin="round"/>
<path d="M2 103.152L2 119.284" stroke="black" stroke-width="3" stroke-linecap="round" stroke-linejoin="round"/>
<path d="M16.2881 106.64V114.924" stroke="black" stroke-width="3" stroke-linecap="round" stroke-linejoin="round"/>
<path d="M102.018 96.1758V125.824" stroke="black" stroke-width="3" stroke-linecap="round" stroke-linejoin="round"/>
<path d="M152.027 93.5596V130.184" stroke="black" stroke-width="3" stroke-linecap="round" stroke-linejoin="round"/>
<path d="M78.7996 96.1758V125.824" stroke="black" stroke-width="3" stroke-linecap="round" stroke-linejoin="round"/>
<path d="M139.525 105.768L139.525 117.976" stroke="black" stroke-width="3" stroke-linecap="round" stroke-linejoin="round"/>
<path d="M178.817 105.768L178.817 117.976" stroke="black" stroke-width="3" stroke-linecap="round" stroke-linejoin="round"/>
<path d="M164.529 99.6641V122.772" stroke="black" stroke-width="3" stroke-linecap="round" stroke-linejoin="round"/>
</svg>
