<svg width="59" height="59" viewBox="0 0 59 59" fill="none" xmlns="http://www.w3.org/2000/svg">
<path d="M29.4999 3.27777C24.3137 3.27777 19.2439 4.81568 14.9317 7.69701C10.6194 10.5783 7.25847 14.6737 5.27377 19.4652C3.28907 24.2567 2.76978 29.5291 3.78157 34.6157C4.79336 39.7023 7.29079 44.3747 10.958 48.0419C14.6253 51.7092 19.2976 54.2066 24.3842 55.2184C29.4709 56.2302 34.7433 55.7109 39.5348 53.7262C44.3262 51.7415 48.4216 48.3805 51.3029 44.0683C54.1843 39.7561 55.7222 34.6863 55.7222 29.5C55.7222 22.5454 52.9595 15.8757 48.0419 10.9581C43.1242 6.04046 36.4545 3.27777 29.4999 3.27777ZM46.6263 20.6992L25.0913 42.2178L12.3736 29.5C11.9389 29.0653 11.6947 28.4758 11.6947 27.8611C11.6947 27.2464 11.9389 26.6569 12.3736 26.2222C12.8082 25.7876 13.3977 25.5434 14.0124 25.5434C14.6271 25.5434 15.2167 25.7876 15.6513 26.2222L25.1241 35.695L43.3813 17.4542C43.5966 17.2389 43.8521 17.0682 44.1333 16.9517C44.4145 16.8353 44.7159 16.7753 45.0202 16.7753C45.3246 16.7753 45.626 16.8353 45.9072 16.9517C46.1884 17.0682 46.4439 17.2389 46.6591 17.4542C46.8743 17.6694 47.0451 17.9249 47.1615 18.2061C47.278 18.4873 47.338 18.7887 47.338 19.093C47.338 19.3974 47.278 19.6988 47.1615 19.98C47.0451 20.2612 46.8743 20.5167 46.6591 20.7319L46.6263 20.6992Z" fill="#219653"/>
</svg>
