<?xml version="1.0" encoding="utf-8"?>
<!-- Svg Vector Icons : http://www.onlinewebfonts.com/icon -->
<!DOCTYPE svg PUBLIC "-//W3C//DTD SVG 1.1//EN" "http://www.w3.org/Graphics/SVG/1.1/DTD/svg11.dtd">
<svg version="1.1" xmlns="http://www.w3.org/2000/svg" xmlns:xlink="http://www.w3.org/1999/xlink" x="0px" y="0px" viewBox="0 0 1000 1000" enable-background="new 0 0 1000 1000" xml:space="preserve">
<metadata> Svg Vector Icons : http://www.onlinewebfonts.com/icon </metadata>
<g><g transform="translate(0.000000,511.000000) scale(0.100000,-0.100000)"><path d="M4684,5046.1c-651.5-43-1251.8-204.9-1833.6-493.7C1807.7,4034.1,1002.5,3198.2,525.2,2139C97,1186.4-13.6,51.4,219.9-997.5C535.4-2417.3,1490.1-3644.5,2791-4306.2c2362.1-1200.5,5240.6-299.1,6512.8,2038.5c401.5,737.5,596.2,1514,596.2,2376.5c0,1124.7-331.9,2114.3-1010,3015.7c-452.8,600.3-1046.9,1087.8-1747.5,1432C6368.1,4935.5,5530.1,5103.5,4684,5046.1z M5308.9,3898.9c590-53.3,1114.5-225.4,1645.1-538.8c75.8-45.1,135.2-88.1,133.2-96.3c-4.1-8.2-1175.9-1194.4-2608-2638.7L1877.3-1997.3l-47.1,55.3c-24.6,28.7-108.6,180.3-186.4,333.9c-692.5,1378.8-501.9,2993.1,491.7,4185.5c622.8,745.7,1573.4,1239.5,2542.4,1319.4C4981.1,3921.4,5046.6,3921.4,5308.9,3898.9z M8361.4,1819.4c165.9-333.9,243.8-549,315.5-872.7C9062.1-788.6,8209.8-2556.6,6620-3320.8c-1141.1-547-2464.6-485.5-3550.4,166c-86,53.2-155.7,102.4-153.7,110.6c4.1,6.2,1178,1192.3,2608,2636.7l2601.8,2624.4l47.1-55.3C8197.5,2130.8,8283.6,1977.2,8361.4,1819.4z"/></g></g>
</svg>