<svg width="18" height="12" viewBox="0 0 18 12" fill="none" xmlns="http://www.w3.org/2000/svg">
<path d="M5.48772 8.97914L1.69471 5.75815C1.50611 5.60346 1.25351 5.51786 0.991311 5.5198C0.729114 5.52173 0.478302 5.61104 0.292893 5.76849C0.107485 5.92594 0.00231622 6.13893 3.78027e-05 6.36158C-0.00224062 6.58424 0.0985538 6.79875 0.280712 6.95891L4.78071 10.7803C4.96824 10.9395 5.22255 11.0289 5.48772 11.0289C5.75288 11.0289 6.00719 10.9395 6.19472 10.7803L17.1947 1.43914C17.3769 1.27898 17.4777 1.06447 17.4754 0.841816C17.4731 0.61916 17.3679 0.406171 17.1825 0.248724C16.9971 0.091276 16.7463 0.00196692 16.4841 3.21017e-05C16.2219 -0.00190272 15.9693 0.0836917 15.7807 0.238379L5.48772 8.97914Z" fill="black"/>
</svg>
