<svg width="28" height="28" viewBox="0 0 28 28" fill="none" xmlns="http://www.w3.org/2000/svg">
<path d="M18.6667 15.1667C18.6667 14.5251 18.1417 14.0001 17.5 14.0001H14C13.3583 14.0001 12.8333 14.5251 12.8333 15.1667C12.8333 15.8084 13.3583 16.3334 14 16.3334H17.5C18.1417 16.3334 18.6667 15.8084 18.6667 15.1667ZM14 7.00008C18.5022 7.00008 22.1667 10.6646 22.1667 15.1667C22.1667 19.6689 18.5022 23.3334 14 23.3334C9.49783 23.3334 5.83333 19.6689 5.83333 15.1667C5.83333 10.6646 9.49783 7.00008 14 7.00008ZM14 4.66675C8.2005 4.66675 3.5 9.36725 3.5 15.1667C3.5 20.9662 8.2005 25.6667 14 25.6667C19.7995 25.6667 24.5 20.9662 24.5 15.1667C24.5 9.36725 19.7995 4.66675 14 4.66675ZM15.1667 11.6667C15.1667 11.0251 14.6417 10.5001 14 10.5001C13.3583 10.5001 12.8333 11.0251 12.8333 11.6667V15.1667C12.8333 15.8084 13.3583 16.3334 14 16.3334C14.6417 16.3334 15.1667 15.8084 15.1667 15.1667V11.6667ZM14 9.33341C17.2165 9.33341 19.8333 11.9502 19.8333 15.1667C19.8333 18.3832 17.2165 21.0001 14 21.0001C10.7835 21.0001 8.16667 18.3832 8.16667 15.1667C8.16667 11.9502 10.7835 9.33341 14 9.33341ZM14 8.16675C12.1435 8.16675 10.363 8.90425 9.05025 10.217C7.7375 11.5298 7 13.3102 7 15.1667C7 17.0233 7.7375 18.8037 9.05025 20.1165C10.363 21.4293 12.1435 22.1667 14 22.1667C15.8565 22.1667 17.637 21.4293 18.9497 20.1165C20.2625 18.8037 21 17.0233 21 15.1667C21 13.3102 20.2625 11.5298 18.9497 10.217C17.637 8.90425 15.8565 8.16675 14 8.16675Z" fill="#FFC423"/>
</svg>
