<svg width="32" height="32" viewBox="0 0 32 32" fill="none" xmlns="http://www.w3.org/2000/svg">
<circle cx="16" cy="16" r="15.4551" fill="white" stroke="#F9C001" stroke-width="1.08989"/>
<g clip-path="url(#clip0)">
<path fill-rule="evenodd" clip-rule="evenodd" d="M16.0001 9.59998C14.9443 9.60329 13.9245 9.98408 13.1249 10.6736C12.5121 11.2016 12.0681 11.8896 11.9537 12.58C10.6129 12.876 9.6001 14.044 9.6001 15.4544C9.6001 17.0928 10.9665 18.4 12.6249 18.4H15.6001V14.1656L13.8833 15.8832C13.8082 15.9583 13.7063 16.0005 13.6001 16.0005C13.4939 16.0005 13.392 15.9583 13.3169 15.8832C13.2418 15.8081 13.1996 15.7062 13.1996 15.6C13.1996 15.4938 13.2418 15.3919 13.3169 15.3168L15.7169 12.9168C15.7541 12.8795 15.7982 12.85 15.8468 12.8298C15.8954 12.8096 15.9475 12.7993 16.0001 12.7993C16.0527 12.7993 16.1048 12.8096 16.1534 12.8298C16.202 12.85 16.2461 12.8795 16.2833 12.9168L18.6833 15.3168C18.7584 15.3919 18.8006 15.4938 18.8006 15.6C18.8006 15.7062 18.7584 15.8081 18.6833 15.8832C18.6082 15.9583 18.5063 16.0005 18.4001 16.0005C18.2939 16.0005 18.192 15.9583 18.1169 15.8832L16.4001 14.1656V18.4H19.7505C21.2017 18.4 22.4001 17.256 22.4001 15.8184C22.4001 14.5096 21.4065 13.4432 20.1329 13.2632C19.9385 11.1992 18.1521 9.59998 16.0001 9.59998ZM15.6001 21.2V18.4H16.4001V21.2C16.4001 21.3061 16.358 21.4078 16.2829 21.4828C16.2079 21.5578 16.1062 21.6 16.0001 21.6C15.894 21.6 15.7923 21.5578 15.7173 21.4828C15.6422 21.4078 15.6001 21.3061 15.6001 21.2Z" fill="black"/>
</g>
<defs>
<clipPath id="clip0">
<rect width="12.8" height="12.8" fill="white" transform="translate(9.6001 9.59998)"/>
</clipPath>
</defs>
</svg>
