<svg width="21" height="21" viewBox="0 0 21 21" fill="none" xmlns="http://www.w3.org/2000/svg">
<path d="M10.5 1.75C8.08763 1.75 6.125 3.71263 6.125 6.125C6.125 8.53737 8.08763 10.5 10.5 10.5C12.9124 10.5 14.875 8.53737 14.875 6.125C14.875 3.71263 12.9124 1.75 10.5 1.75ZM10.5 8.75C9.05275 8.75 7.875 7.57225 7.875 6.125C7.875 4.67775 9.05275 3.5 10.5 3.5C11.9473 3.5 13.125 4.67775 13.125 6.125C13.125 7.57225 11.9473 8.75 10.5 8.75ZM18.375 18.375V17.5C18.375 14.1234 15.6266 11.375 12.25 11.375H8.75C5.3725 11.375 2.625 14.1234 2.625 17.5V18.375H4.375V17.5C4.375 15.0876 6.33763 13.125 8.75 13.125H12.25C14.6624 13.125 16.625 15.0876 16.625 17.5V18.375H18.375Z" fill="black"/>
</svg>
