<svg width="84" height="84" viewBox="0 0 84 84" fill="none" xmlns="http://www.w3.org/2000/svg">
<rect y="8" width="76" height="76" rx="25" fill="url(#paint0_linear)"/>
<rect x="7" width="77" height="70" rx="25" fill="url(#paint1_linear)" fill-opacity="0.05"/>
<rect x="19" y="23" width="39" height="43" rx="5" fill="white"/>
<g clip-path="url(#clip0)">
<path fill-rule="evenodd" clip-rule="evenodd" d="M34.775 39.7C34.3482 40.3432 33.7395 40.8448 33.0266 41.1406C32.7953 41.2344 32.3109 41.3563 32.3109 41.3563V49.1813C33.3193 49.3891 34.2054 49.9851 34.7781 50.8406C35.2047 51.4844 35.4328 52.2391 35.4328 53.0094C35.4453 53.5453 35.3437 54.0781 35.1359 54.5719C34.8379 55.2953 34.3284 55.9118 33.674 56.3406C33.0196 56.7694 32.251 56.9906 31.4687 56.975C30.6968 56.9775 29.9416 56.7496 29.3 56.3203C28.6563 55.893 28.1546 55.2834 27.8591 54.5695C27.5635 53.8556 27.4874 53.0698 27.6406 52.3125C27.7891 51.5531 28.1578 50.8563 28.7031 50.3078C29.2484 49.7719 29.9375 49.4031 30.6859 49.2453V41.2953C29.9382 41.1349 29.2509 40.7666 28.7031 40.2328C28.1587 39.6843 27.7889 38.9867 27.6406 38.2281C27.4871 37.4711 27.5627 36.6856 27.8577 35.9717C28.1527 35.2579 28.6537 34.6481 29.2969 34.2203C29.9394 33.7901 30.6955 33.5611 31.4687 33.5625C31.9916 33.5541 32.5109 33.6505 32.9958 33.8462C33.4808 34.0418 33.9216 34.3327 34.2922 34.7016C34.6625 35.0722 34.9542 35.5136 35.1499 35.9996C35.3456 36.4855 35.4413 37.0059 35.4312 37.5297C35.4344 38.3016 35.2062 39.0578 34.775 39.7ZM33.5937 51.9828C33.3934 51.6088 33.0953 51.2961 32.7312 51.0781C32.3688 50.8584 31.952 50.7447 31.5281 50.75C31.1817 50.749 30.8394 50.8251 30.526 50.9727C30.2126 51.1203 29.9359 51.3357 29.716 51.6035C29.4962 51.8712 29.3386 52.1844 29.2548 52.5206C29.1709 52.8567 29.1629 53.2073 29.2312 53.5469C29.3203 54.0026 29.5434 54.4213 29.8719 54.7495C30.2003 55.0777 30.6192 55.3004 31.075 55.3891C31.525 55.4797 31.9906 55.436 32.4187 55.2641C32.85 55.0813 33.2187 54.7766 33.4812 54.3891C33.7156 54.036 33.8484 53.6235 33.8703 53.2016C33.8893 52.7779 33.7938 52.3568 33.5937 51.9828ZM30.2312 39.4078C30.6172 39.6594 31.0687 39.7985 31.5281 39.7985C31.9516 39.7985 32.3687 39.6813 32.7312 39.4688C33.0939 39.2494 33.391 38.9365 33.5914 38.563C33.7918 38.1894 33.8881 37.7689 33.8703 37.3453C33.849 36.9216 33.7141 36.5114 33.4797 36.1578C33.2175 35.7696 32.8485 35.4657 32.4172 35.2828C31.9914 35.1094 31.5239 35.0659 31.0734 35.1578C30.6178 35.2471 30.1992 35.4702 29.8711 35.7987C29.5429 36.1271 29.3202 36.5459 29.2312 37.0016C29.1406 37.4516 29.1844 37.9172 29.3562 38.3453C29.5391 38.7766 29.8437 39.1453 30.2312 39.4078ZM46.3703 42.9375H44.8047V40.5781C44.8047 39.9565 44.5578 39.3604 44.1182 38.9209C43.6787 38.4813 43.0825 38.2344 42.4609 38.2344H39.5734L41.5562 40.2188L40.4469 41.3266L37.1203 38V36.9063L40.4484 33.5781L41.5578 34.6891L39.575 36.6735H42.4656C43.2392 36.6691 43.9963 36.896 44.64 37.325C45.2837 37.7541 45.7845 38.3656 46.0781 39.0813C46.2734 39.5531 46.3734 40.0625 46.3703 40.5766V42.9375ZM46.3125 57H44.75V52.3125H40.0625V50.75H44.75V46.0625H46.3125V50.75H51V52.3125H46.3125V57Z" fill="black"/>
</g>
<defs>
<linearGradient id="paint0_linear" x1="0" y1="46" x2="76" y2="46" gradientUnits="userSpaceOnUse">
<stop stop-color="#1E3C72"/>
<stop offset="0.01" stop-color="#1E3C72"/>
<stop offset="1" stop-color="#2A5298"/>
</linearGradient>
<linearGradient id="paint1_linear" x1="7" y1="35" x2="84" y2="35" gradientUnits="userSpaceOnUse">
<stop stop-color="#1E3C72"/>
<stop offset="0.01" stop-color="#1E3C72"/>
<stop offset="1" stop-color="#2A5298"/>
</linearGradient>
<clipPath id="clip0">
<rect width="25" height="25" fill="white" transform="translate(26 32)"/>
</clipPath>
</defs>
</svg>
