<svg width="84" height="84" viewBox="0 0 84 84" fill="none" xmlns="http://www.w3.org/2000/svg">
<rect y="8" width="76" height="76" rx="25" fill="url(#paint0_linear)"/>
<rect x="7" width="77" height="70" rx="25" fill="url(#paint1_linear)" fill-opacity="0.05"/>
<rect x="19" y="23" width="39" height="43" rx="5" fill="white"/>
<path d="M48.5 48.75C48.0781 48.75 47.7227 48.6016 47.4336 48.3047C47.1445 48.0078 47 47.6562 47 47.25V45C47 43.375 46.5977 41.8711 45.793 40.4883C44.9883 39.1055 43.8945 38.0117 42.5117 37.207C41.1289 36.4023 39.625 36 38 36C36.375 36 34.8711 36.4023 33.4883 37.207C32.1055 38.0117 31.0117 39.1055 30.207 40.4883C29.4023 41.8711 29 43.375 29 45V47.25C29 47.6562 28.8555 48.0078 28.5664 48.3047C28.2773 48.6016 27.9258 48.75 27.5117 48.75C27.0977 48.75 26.7422 48.6016 26.4453 48.3047C26.1484 48.0078 26 47.6562 26 47.25V45C26 43.375 26.3164 41.8203 26.9492 40.3359C27.582 38.8516 28.4336 37.5742 29.5039 36.5039C30.5742 35.4336 31.8516 34.582 33.3359 33.9492C34.8203 33.3164 36.375 33 38 33C39.625 33 41.1797 33.3164 42.6641 33.9492C44.1484 34.582 45.4258 35.4336 46.4961 36.5039C47.5664 37.5742 48.418 38.8516 49.0508 40.3359C49.6836 41.8203 50 43.375 50 45V47.25C50 47.6562 49.8555 48.0078 49.5664 48.3047C49.2773 48.6016 48.9219 48.75 48.5 48.75ZM38 37.5C39.3594 37.5 40.6133 37.8359 41.7617 38.5078C42.9102 39.1797 43.8203 40.0898 44.4922 41.2383C45.1641 42.3867 45.5 43.6406 45.5 45V46.5C45.5 46.9062 45.3555 47.2578 45.0664 47.5547C44.7773 47.8516 44.4258 48 44.0117 48C43.5977 48 43.2422 47.8516 42.9453 47.5547C42.6484 47.2578 42.5 46.9062 42.5 46.5V45C42.5 43.75 42.0625 42.6875 41.1875 41.8125C40.3125 40.9375 39.25 40.5 38 40.5C36.75 40.5 35.6875 40.9375 34.8125 41.8125C33.9375 42.6875 33.5 43.75 33.5 45V46.5C33.5 46.9062 33.3555 47.2578 33.0664 47.5547C32.7773 47.8516 32.4258 48 32.0117 48C31.5977 48 31.2422 47.8516 30.9453 47.5547C30.6484 47.2578 30.5 46.9062 30.5 46.5V45C30.5 43.6406 30.8359 42.3867 31.5078 41.2383C32.1797 40.0898 33.0898 39.1797 34.2383 38.5078C35.3867 37.8359 36.6406 37.5 38 37.5ZM38 42C38.8281 42 39.5352 42.293 40.1211 42.8789C40.707 43.4648 41 44.1719 41 45C41 45.8281 40.707 46.5352 40.1211 47.1211C39.5352 47.707 38.8281 48 38 48C37.1719 48 36.4648 47.707 35.8789 47.1211C35.293 46.5352 35 45.8281 35 45C35 44.1719 35.293 43.4648 35.8789 42.8789C36.4648 42.293 37.1719 42 38 42ZM36.5 49.5H39.5C39.9219 49.5 40.2773 49.6445 40.5664 49.9336C40.8555 50.2227 41 50.5781 41 51L39.5 55.5C39.5 55.9062 39.3555 56.2578 39.0664 56.5547C38.7773 56.8516 38.4258 57 38.0117 57C37.5977 57 37.2422 56.8516 36.9453 56.5547C36.6484 56.2578 36.5 55.9062 36.5 55.5L35 51C35 50.5781 35.1445 50.2227 35.4336 49.9336C35.7227 49.6445 36.0781 49.5 36.5 49.5Z" fill="black"/>
<defs>
<linearGradient id="paint0_linear" x1="0" y1="46" x2="76" y2="46" gradientUnits="userSpaceOnUse">
<stop stop-color="#F6D365"/>
<stop offset="1" stop-color="#FDA085"/>
</linearGradient>
<linearGradient id="paint1_linear" x1="7" y1="35" x2="84" y2="35" gradientUnits="userSpaceOnUse">
<stop stop-color="#F6D365"/>
<stop offset="1" stop-color="#FDA085"/>
</linearGradient>
</defs>
</svg>
