<svg width="84" height="84" viewBox="0 0 84 84" fill="none" xmlns="http://www.w3.org/2000/svg">
<rect y="8" width="76" height="76" rx="25" fill="url(#paint0_linear)"/>
<rect x="7" width="77" height="70" rx="25" fill="url(#paint1_linear)" fill-opacity="0.05"/>
<rect x="19" y="23" width="39" height="43" rx="5" fill="white"/>
<path d="M38.5 33.125C36.288 33.125 34.4957 34.8977 34.407 37.0891C32.5578 37.8786 30.982 39.1949 29.876 40.874C28.77 42.5531 28.1827 44.5206 28.1875 46.5312C28.1875 46.7086 28.1793 46.9025 28.1875 47.1118C26.9665 47.8286 26.125 49.1455 26.125 50.6562C26.125 52.925 27.9812 54.7812 30.25 54.7812C30.8419 54.7812 31.4143 54.6565 31.9258 54.4265C33.714 55.929 36.0425 56.8438 38.5 56.8438C40.9575 56.8438 43.285 55.929 45.0742 54.4265C45.5857 54.6565 46.157 54.7812 46.75 54.7812C49.0187 54.7812 50.875 52.925 50.875 50.6562C50.875 49.13 50.0252 47.7925 48.7805 47.0788C48.796 46.9138 48.8125 46.7447 48.8125 46.5312C48.8173 44.5206 48.23 42.5531 47.124 40.874C46.018 39.1949 44.4422 37.8786 42.593 37.0891C42.5043 34.8977 40.712 33.125 38.5 33.125ZM38.5 35.1875C39.6519 35.1875 40.5625 36.0981 40.5625 37.25C40.5625 38.4019 39.6519 39.3125 38.5 39.3125C37.3481 39.3125 36.4375 38.4019 36.4375 37.25C36.4375 36.0981 37.3481 35.1875 38.5 35.1875ZM34.8587 39.1516C35.5506 40.4644 36.9212 41.375 38.5 41.375C40.0788 41.375 41.4494 40.4644 42.1413 39.1516C43.5257 39.8239 44.6924 40.873 45.5076 42.1783C46.3227 43.4836 46.7534 44.9923 46.75 46.5312C44.4813 46.5312 42.625 48.3875 42.625 50.6562C42.625 51.5792 42.9437 52.4166 43.4634 53.1055C42.0325 54.1839 40.2917 54.7716 38.5 54.7812C36.7083 54.7716 34.9675 54.1839 33.5366 53.1055C34.077 52.403 34.3716 51.5425 34.375 50.6562C34.375 48.3875 32.5188 46.5312 30.25 46.5312C30.2466 44.9923 30.6773 43.4836 31.4924 42.1783C32.3076 40.873 33.4743 39.8239 34.8587 39.1516ZM30.25 48.5938C31.4019 48.5938 32.3125 49.5043 32.3125 50.6562C32.3125 51.8082 31.4019 52.7188 30.25 52.7188C29.0981 52.7188 28.1875 51.8082 28.1875 50.6562C28.1875 49.5043 29.0981 48.5938 30.25 48.5938ZM46.75 48.5938C47.9019 48.5938 48.8125 49.5043 48.8125 50.6562C48.8125 51.8082 47.9019 52.7188 46.75 52.7188C45.5981 52.7188 44.6875 51.8082 44.6875 50.6562C44.6875 49.5043 45.5981 48.5938 46.75 48.5938Z" fill="black"/>
<defs>
<linearGradient id="paint0_linear" x1="0" y1="46" x2="76" y2="46" gradientUnits="userSpaceOnUse">
<stop stop-color="#37ECBA"/>
<stop offset="1" stop-color="#72AFD3"/>
</linearGradient>
<linearGradient id="paint1_linear" x1="7" y1="35" x2="84" y2="35" gradientUnits="userSpaceOnUse">
<stop stop-color="#37ECBA"/>
<stop offset="1" stop-color="#72AFD3"/>
</linearGradient>
</defs>
</svg>
