<svg width="48" height="48" viewBox="0 0 48 48" fill="none" xmlns="http://www.w3.org/2000/svg">
<path d="M23.9998 0C10.7448 0 -0.000152588 10.745 -0.000152588 24C-0.000152588 37.255 10.7448 48 23.9998 48C37.2548 48 47.9998 37.255 47.9998 24C47.9998 10.745 37.2548 0 23.9998 0ZM33.7623 19.66C33.7723 19.865 33.7748 20.07 33.7748 20.27C33.7748 26.52 29.0223 33.7225 20.3273 33.7225C17.7581 33.7268 15.2423 32.9889 13.0823 31.5975C13.4498 31.6425 13.8273 31.66 14.2098 31.66C16.4248 31.66 18.4623 30.9075 20.0798 29.6375C19.0941 29.6181 18.139 29.2917 17.3476 28.7038C16.5562 28.1158 15.968 27.2956 15.6648 26.3575C16.3727 26.4921 17.102 26.4639 17.7973 26.275C16.7275 26.0587 15.7653 25.4789 15.0741 24.6342C14.3829 23.7894 14.0051 22.7315 14.0048 21.64V21.5825C14.6423 21.935 15.3723 22.15 16.1473 22.175C15.1443 21.5073 14.4343 20.4817 14.1625 19.3078C13.8906 18.134 14.0775 16.9006 14.6848 15.86C15.8722 17.32 17.353 18.5144 19.0313 19.3658C20.7095 20.2172 22.5479 20.7067 24.4273 20.8025C24.1884 19.7883 24.2912 18.7235 24.7199 17.7738C25.1485 16.824 25.8789 16.0425 26.7975 15.5507C27.7162 15.0588 28.7715 14.8843 29.7996 15.0542C30.8276 15.2241 31.7708 15.7288 32.4823 16.49C33.5403 16.2807 34.5548 15.8926 35.4823 15.3425C35.1298 16.4378 34.3915 17.3679 33.4049 17.96C34.342 17.8471 35.257 17.5952 36.1198 17.2125C35.4861 18.1622 34.6877 18.9911 33.7623 19.66Z" fill="white"/>
</svg>
